<?xml version="1.0" encoding="utf-8"?>
<!-- Generator: Adobe Illustrator 21.1.0, SVG Export Plug-In . SVG Version: 6.00 Build 0)  -->
<svg version="1.1" xmlns="http://www.w3.org/2000/svg" xmlns:xlink="http://www.w3.org/1999/xlink" x="0px" y="0px"
	 viewBox="0 0 1200 1200" style="enable-background:new 0 0 1200 1200;" xml:space="preserve">
<style type="text/css">
	.st0{fill:#FCC61B;stroke:#FFFFFF;stroke-width:100;stroke-miterlimit:10;}
	.st1{fill:#EF7E28;}
	.st2{fill:#FCC61B;}
	.st3{fill:#FFFFFF;}
	.st4{fill:#1D1D1B;}
	.st5{fill:#FFDE82;}
	.st6{fill:#DE5B11;}
</style>
<g id="Слой_2">
	<path class="st0" d="M838.6,553.4c12-2.5,25.8-6.5,30.4-17.8c4.6-11.1-2.8-24.3-13.3-30.3c-10.4-6-23-6.6-35.1-7
		c14-5.9,29.5-17.6,26.7-32.5c-1.5-8-8.4-14.2-16.1-16.8c-21.6-7.1-50.6,11.5-68.9,32.9c-11.6-19.4-22.4-39.9-23-62.3
		c-0.8-28.7,15.1-54.4,26.6-80.9c20.5-26.5,31-60.9,31.7-94.8c0.1-6.1-0.1-12.3-0.6-18.4c3.1-16,5.1-32.3,5.9-48.6
		c0.9-17.9,3.3-38.3-4-55.3c-11.6-27-30.8-20.2-54.2-17.3c-10,1.3-20.4,2.5-30.5,1.9c-29.5-13.6-63.8-18.2-95.8-13.3
		c-39.7,6.1-60,29.2-87.8,56.1c-10.1,9.7-20.2,19.5-31.4,27.9c-22.9,17.1-83,63.4-99,12.7c-3.2-10.1-1.5-17.5-10.4-25.3
		c-9.4-8.2-22.7-9.6-34.5-7.2c-25.5,5.1-31.8,19.8-34,45c-1.3,14.6,2.3,30.3,12.5,40.9c6.5,6.7,15.1,10.9,23.6,14.6
		c35.8,15.8,73.8,26.6,112.5,32.2c12.6,1.8,25.4,3.1,38.1,5.1c21.7,3.3,42.8,8.5,60.6,20.9c1.2,0.8,2.3,1.6,3.4,2.5
		c0.7,0.6,1.4,1.3,2.1,2c0.2,0.2,0.4,0.4,0.7,0.7c0.5,0.5,0.9,0.9,1.4,1.4c0.2,0.2,0.5,0.5,0.7,0.7c0.5,0.6,1,1.1,1.5,1.7
		c0.1,0.1,0.3,0.3,0.4,0.4c0.6,0.7,1.2,1.4,1.8,2.1c0.2,0.2,0.3,0.4,0.5,0.6c0.5,0.6,0.9,1.1,1.4,1.7c0.2,0.2,0.3,0.4,0.5,0.6
		c0.6,0.7,1.1,1.5,1.6,2.2c0,0,0,0.1,0.1,0.1c1.2,1.7,2.4,3.5,3.6,5.3c0.9,1.4,1.7,2.8,2.6,4.3c0,0.1,0.1,0.1,0.1,0.2
		c0.8,1.4,1.5,2.8,2.3,4.2c0.1,0.1,0.1,0.2,0.2,0.3c0.7,1.4,1.4,2.9,2.1,4.3c0,0.1,0.1,0.2,0.1,0.2c0.7,1.5,1.3,3,1.9,4.6
		c0,0,0,0,0,0.1c0.5,1.2,0.9,2.4,1.3,3.5c0.1,0.1,0.1,0.3,0.2,0.4c0.4,1.2,0.8,2.4,1.2,3.6c0,0,0,0.1,0,0.1c0.4,1.2,0.7,2.3,1,3.5
		c0,0.1,0.1,0.3,0.1,0.4c0.3,1.2,0.6,2.3,0.9,3.5c0,0.2,0.1,0.4,0.1,0.6c0.3,1.2,0.5,2.4,0.8,3.6c0,0,0,0.1,0,0.1
		c0.2,1.2,0.4,2.3,0.6,3.5c0,0.2,0.1,0.4,0.1,0.6c0.2,1.2,0.3,2.3,0.5,3.5c0,0.2,0.1,0.5,0.1,0.7c0.1,1.2,0.3,2.4,0.4,3.6
		c0.2,3.2,0.4,6.4,0.3,9.6c0,2.1-0.1,4.2-0.2,6.2c0,0.1,0,0.2,0,0.3c-0.1,0.9-0.1,1.8-0.2,2.6c0,0.2,0,0.5-0.1,0.7
		c-0.1,0.8-0.1,1.5-0.2,2.3c0,0.3-0.1,0.5-0.1,0.8c-0.1,0.8-0.2,1.6-0.3,2.3c0,0.2-0.1,0.4-0.1,0.7c-0.1,1-0.3,1.9-0.4,2.9
		c0,0.2-0.1,0.4-0.1,0.7c-0.1,0.7-0.2,1.4-0.4,2.1c-0.1,0.5-0.2,1-0.3,1.5c-0.1,0.4-0.1,0.7-0.2,1.1c-0.2,1.2-0.5,2.4-0.8,3.6
		c0,0,0,0.1,0,0.1c-0.3,1.3-0.6,2.5-1,3.8c0,0.1-0.1,0.3-0.1,0.4c-0.3,1.1-0.6,2.1-0.9,3.2c-0.1,0.3-0.2,0.6-0.3,0.9
		c-0.3,0.9-0.6,1.8-0.9,2.8c-0.1,0.3-0.2,0.6-0.3,0.9c-0.4,1.2-0.8,2.3-1.2,3.5c0,0,0,0,0,0c-0.4,1.2-0.9,2.4-1.3,3.5
		c-0.1,0.3-0.2,0.6-0.4,0.9c-0.3,0.9-0.7,1.7-1.1,2.5c-0.2,0.4-0.3,0.7-0.5,1.1c-0.4,0.8-0.7,1.7-1.1,2.5c-0.1,0.3-0.3,0.6-0.4,1
		c-0.5,1.1-1,2.2-1.6,3.3c-0.1,0.2-0.2,0.4-0.3,0.6c-0.5,0.9-0.9,1.8-1.4,2.7c-0.2,0.4-0.4,0.8-0.6,1.2c-0.4,0.7-0.8,1.4-1.2,2.2
		c-0.2,0.4-0.5,0.8-0.7,1.2c-0.4,0.7-0.9,1.5-1.3,2.2c-0.2,0.3-0.4,0.7-0.6,1c-0.6,1-1.2,2-1.9,3c-0.2,0.4-0.5,0.8-0.7,1.1
		c-0.4,0.7-0.8,1.3-1.3,2c-0.3,0.5-0.6,0.9-0.9,1.3c-0.4,0.6-0.8,1.1-1.2,1.7c-0.3,0.5-0.6,0.9-1,1.4c-0.4,0.6-0.9,1.2-1.3,1.8
		c-0.9,1.2-1.8,2.5-2.8,3.7c-1.1,1.4-2.2,2.8-3.3,4.1c-0.4,0.4-0.7,0.8-1.1,1.3c-0.8,0.9-1.6,1.8-2.4,2.7c-0.4,0.5-0.9,1-1.3,1.4
		c-0.8,0.8-1.5,1.7-2.3,2.5c-0.4,0.5-0.9,0.9-1.3,1.4c-0.8,0.9-1.6,1.7-2.4,2.5c-0.3,0.3-0.7,0.7-1,1c-1.8,1.8-3.5,3.5-5.3,5.3
		c-0.2,0.2-0.4,0.4-0.6,0.5c-1.7,1.6-3.4,3.2-5.2,4.8c-0.3,0.2-0.5,0.5-0.8,0.7c-1.8,1.6-3.6,3.2-5.4,4.8c-0.4,0.4-0.9,0.8-1.3,1.2
		c-1.7,1.5-3.5,3.1-5.3,4.6c-0.4,0.4-0.8,0.7-1.3,1.1c-1.6,1.4-3.3,2.8-4.9,4.2c-0.3,0.2-0.6,0.5-0.8,0.7c-2.3,1.9-4.6,3.9-6.9,5.8
		c-1.3,1.1-2.6,2.2-3.9,3.3c-1,0.8-2,1.7-2.9,2.5c-1.1,0.9-2.1,1.8-3.2,2.8c-0.6,0.5-1.2,1-1.8,1.6c-0.4,0.4-0.8,0.7-1.2,1.1
		c-1.2,1-2.3,2.1-3.5,3.1c-0.6,0.5-1.2,1.1-1.8,1.6c-1.3,1.2-2.6,2.4-3.9,3.5c-0.3,0.3-0.6,0.6-1,0.9c-1.5,1.4-3.1,2.9-4.6,4.4
		c-0.5,0.4-0.9,0.9-1.4,1.3c-1.5,1.4-2.9,2.9-4.3,4.3c-0.1,0.1-0.2,0.2-0.3,0.3c-9.1,9.4-17.4,19.5-24.2,30.9
		c-0.8,1.3-1.5,2.5-2.2,3.8c-0.3,0.5-0.6,1.1-0.9,1.7c-0.4,0.7-0.8,1.5-1.2,2.3c-0.3,0.6-0.6,1.2-0.9,1.9c-0.3,0.7-0.7,1.4-1,2.1
		c-0.3,0.6-0.6,1.3-0.8,1.9c-0.3,0.7-0.6,1.5-0.9,2.2c-0.3,0.6-0.5,1.3-0.8,1.9c-0.3,0.8-0.6,1.5-0.9,2.3c-0.2,0.6-0.5,1.2-0.7,1.8
		c-0.3,0.8-0.6,1.6-0.8,2.4c-0.2,0.6-0.4,1.2-0.6,1.8c-0.3,0.8-0.5,1.7-0.8,2.5c-0.2,0.6-0.4,1.2-0.5,1.8c-0.1,0.3-0.2,0.5-0.2,0.7
		c-0.2,0.8-0.4,1.6-0.7,2.5c-0.1,0.3-0.1,0.5-0.2,0.8c-0.3,1.3-0.7,2.7-0.9,4c-0.1,0.4-0.2,0.9-0.3,1.3c-0.2,0.9-0.4,1.9-0.6,2.8
		c-0.1,0.5-0.2,1.1-0.3,1.6c-0.2,0.9-0.3,1.8-0.4,2.7c-0.1,0.5-0.2,1-0.2,1.5c-0.2,1.3-0.4,2.6-0.5,3.9c-0.1,0.5-0.1,1-0.2,1.5
		c-0.1,0.9-0.2,1.8-0.3,2.7c-0.1,0.6-0.1,1.1-0.1,1.7c0,0.4-0.1,0.7-0.1,1.1v0c0,0.3,0,0.7-0.1,1c-0.1,1-0.1,2-0.2,3
		c0,0.6,0,1.2-0.1,1.8c0,1,0,2,0,3c0,0.6,0,1.2,0,1.9c0,1,0,2,0.1,2.9c0,0.6,0,1.3,0.1,1.9c0,1,0.1,1.9,0.2,2.9
		c0,0.6,0.1,1.3,0.1,1.9c0.1,1,0.2,2,0.3,2.9c0.1,0.6,0.1,1.2,0.2,1.9c0.1,1,0.2,2,0.4,3c0.1,0.6,0.1,1.2,0.2,1.8
		c0.2,1.1,0.3,2.2,0.5,3.2c0.1,0.5,0.2,1,0.2,1.5c0.3,1.4,0.5,2.8,0.8,4.2c0,0.2,0.1,0.3,0.1,0.5c0.3,1.6,0.7,3.1,1.1,4.7
		c0.1,0.3,0.2,0.7,0.3,1c0.3,1.2,0.6,2.4,1,3.6c0.1,0.5,0.3,1,0.4,1.5c0.3,1,0.6,2.1,1,3.1c0.2,0.5,0.4,1,0.5,1.6c0.3,1,0.7,2,1.1,3
		c0.2,0.5,0.4,1,0.6,1.6c0.4,1,0.8,2,1.2,3c0.2,0.5,0.4,1,0.6,1.5c0.4,1,0.9,2,1.3,3c0.2,0.5,0.4,0.9,0.7,1.4c0.5,1,1,2,1.5,3
		c0.2,0.4,0.4,0.9,0.6,1.3c0.5,1,1.1,2.1,1.6,3.1c0.1,0.2,0.2,0.4,0.3,0.6c0.2,0.3,0.3,0.6,0.5,0.9c0.3,0.5,0.6,1.1,0.9,1.6
		c0.7,1.2,1.4,2.3,2.1,3.4c0.8,1.3,1.7,2.7,2.6,4c0.3,0.5,0.7,1,1.1,1.5c0.6,0.8,1.1,1.6,1.7,2.4c0.4,0.5,0.8,1,1.2,1.5
		c0.6,0.8,1.2,1.6,1.8,2.3c0.4,0.5,0.8,1,1.2,1.5c0.6,0.7,1.2,1.5,1.8,2.2c0.1,0.1,0.2,0.3,0.4,0.4c0.3,0.4,0.7,0.8,1.1,1.2
		c0.5,0.6,1.1,1.2,1.6,1.8c0.5,0.5,1,1.1,1.5,1.6c0.6,0.6,1.1,1.2,1.7,1.8c0.5,0.5,1.1,1.1,1.6,1.6c0.6,0.6,1.1,1.1,1.7,1.7
		c0.6,0.5,1.1,1.1,1.7,1.6c0.6,0.5,1.1,1,1.7,1.6c0.6,0.5,1.2,1,1.8,1.6c0.6,0.5,1.1,1,1.7,1.5c0.6,0.5,1.3,1,1.9,1.5
		c0.6,0.5,1.1,0.9,1.7,1.4c0.7,0.5,1.3,1,2,1.5c0.6,0.4,1.1,0.9,1.7,1.3c0.7,0.5,1.4,1,2.1,1.5c0.6,0.4,1.1,0.8,1.7,1.2
		c0.7,0.5,1.4,1,2.2,1.4c0.6,0.4,1.1,0.7,1.7,1.1c0.7,0.5,1.5,0.9,2.2,1.4c0.6,0.3,1.1,0.7,1.7,1c0.8,0.5,1.5,0.9,2.3,1.3
		c0.6,0.3,1.2,0.7,1.7,1c0.8,0.4,1.6,0.8,2.4,1.3c0.6,0.3,1.2,0.6,1.8,0.9c0.8,0.4,1.6,0.8,2.4,1.2c0.6,0.3,1.2,0.6,1.8,0.9
		c0.8,0.4,1.6,0.7,2.4,1.1c0.6,0.3,1.2,0.5,1.9,0.8c0.8,0.3,1.6,0.7,2.4,1c0.6,0.3,1.3,0.5,1.9,0.8c0.8,0.3,1.6,0.6,2.4,0.9
		c0.7,0.2,1.3,0.5,2,0.7c0.3,0.1,0.7,0.3,1,0.4c0.5,0.2,0.9,0.3,1.4,0.4c0.7,0.2,1.3,0.4,2,0.6c0.8,0.3,1.6,0.5,2.4,0.7
		c0.7,0.2,1.3,0.4,2,0.6c0.8,0.2,1.6,0.5,2.5,0.7c0.6,0.2,1.3,0.3,2,0.5c0.8,0.2,1.7,0.4,2.5,0.6c0.6,0.1,1.3,0.3,1.9,0.4
		c0.9,0.2,1.7,0.4,2.6,0.5c0.6,0.1,1.3,0.3,1.9,0.4c0.9,0.2,1.7,0.3,2.6,0.4c0.7,0.1,1.3,0.2,2,0.3c0.8,0.1,1.6,0.2,2.4,0.3
		c0.7,0.1,1.5,0.2,2.2,0.3c0.7,0.1,1.5,0.2,2.2,0.2c0.8,0.1,1.7,0.2,2.5,0.2c0.2,0,0.4,0,0.6,0.1h0c0.5,0,1,0.1,1.5,0.1
		c0.8,0,1.5,0.1,2.3,0.1c0.8,0,1.7,0.1,2.5,0.1c0.6,0,1.2,0,1.8,0.1c0.7,0,1.4,0,2.1,0c45.5,13.5,86.8,40.8,117.1,77.3
		c7.8,9.4,14.9,19.4,20,30.5c12.7,27.9,11.2,61.9-4.1,88.5c-10.9,19.1-28.7,34.1-49.2,42.2c-6.9-1.2-13.7-3.5-20-6.6
		c-21.6-10.6-38.5-31-43.1-54.5c-3-15.3,1.3-34.4,16-39.8c12.4-4.5,26,3,35.4,12.4c3.7,3.6,7.8,7.9,12.9,7.5
		c4.1-0.3,7.3-3.5,9.3-7.1c5.4-9.5,4.3-21.9-1.3-31.4c-5.5-9.5-14.8-16.3-24.7-20.9c-15.6-7.2-34.4-9.1-49.8-1.5
		c-16.1,8-26,25-31.3,42.2c-15.2,49.5,2.3,107.3,42.4,140c40.1,32.7,100.3,38.2,145.7,13.4c17.9-9.8,33.2-23.6,46.4-39.2
		c11.8-13.9,22-29.7,26.4-47.4c7.3-28.9-1.8-59.8-16.1-85.9c-14.4-26.2-33.9-49.1-50-74.2c-8-12.6-15.3-26-18-40.6
		c-2.8-15.4-0.3-31.3,3.3-46.5c1.8-7.8,4-15.5,6.3-23.1c8.5-6.8,16.5-14.3,23.7-22.5c1.7,4.9,3.9,9.7,7.2,13.8
		c5.1,6.3,13.6,10.6,21.4,8.2c10.3-3.1,14.5-15.5,14.7-26.2c0.3-13.4-3.3-26.9-10.3-38.3c6.6,4.8,13.4,9.6,21.2,11.9
		c7.8,2.3,17,1.5,23-4c4-3.7,6.2-9.1,7.3-14.4c4.1-19.5-4.7-41.1-21.2-52.2c8.5-1,16.9-3.3,24.7-6.7c2.8-1.2,5.6-2.6,7.3-5.1
		c1.6-2.2,2.2-4.9,2.4-7.6C880.8,571.8,860,551.3,838.6,553.4z"/>
</g>
<g id="Слой_2__x28_копия_x29_">
	<g>
		<path class="st1" d="M693,101.6c15.9,7.2,34.3,5.1,51.6,2.9c23.4-3,42.6-9.8,54.2,17.3c7.3,17,4.8,37.4,4,55.3
			c-1.8,37-9.6,73.7-23.4,108.1L693,101.6z"/>
		<g>
			<path class="st2" d="M577.1,799.2c48.1,12.8,92,40.9,123.8,79.2c7.8,9.4,14.9,19.4,20,30.5c12.7,27.9,11.2,61.9-4.1,88.5
				c-15.2,26.6-43.7,45.2-74.2,48.4c19.6,14.1,44.9,20,68.7,15.8c23.8-4.2,45.6-18.3,59.2-38.3c17.3-25.5,20.5-58.5,14.4-88.7
				c-6-30.2-20.5-57.9-36.2-84.4c-21.2-35.5-47.7-71.3-86.6-85.3c-8.6-3.1-20.2-4.1-25.3,3.5L577.1,799.2z"/>
			<path class="st2" d="M831.2,449.1c7.7,2.5,14.6,8.8,16.1,16.8c2.8,14.9-12.7,26.6-26.7,32.5c12,0.4,24.6,1,35.1,7
				c10.4,6,17.8,19.1,13.3,30.3c-4.6,11.3-18.4,15.3-30.4,17.8c21.5-2.1,42.2,18.4,40.2,39.9c-0.2,2.7-0.8,5.4-2.4,7.6
				c-1.8,2.4-4.6,3.9-7.3,5.1c-7.9,3.4-16.2,5.7-24.7,6.7c16.5,11.1,25.3,32.7,21.2,52.2c-1.1,5.4-3.3,10.7-7.3,14.4
				c-6,5.5-15.2,6.2-23,4c-7.8-2.3-14.6-7.1-21.2-11.9c6.9,11.5,10.5,24.9,10.3,38.3c-0.2,10.7-4.4,23.1-14.7,26.2
				c-7.8,2.3-16.3-1.9-21.4-8.2c-5.1-6.3-7.5-14.3-9.8-22.1c-6.7-22.5-13.3-44.9-20-67.4c-11.8-39.7-25-88.6-11.8-129.9
				C755.5,480.1,800.7,439,831.2,449.1z"/>
			<path class="st1" d="M333.8,243.3c6.5,6.7,15.1,10.9,23.6,14.6c35.8,15.8,73.8,26.6,112.5,32.2c12.6,1.8,25.4,3.1,38.1,5.1
				c21.7,3.3,42.8,8.5,60.6,20.9c1.2,0.8,2.3,1.6,3.4,2.5c19,14.5,32.4,35.7,52.1,49.4c7.8,5.4,16.3,9.3,25.3,11.9
				c32.2,9.3,69.7,0.9,96.3-20.5c7.6-6.1,14.3-13,20.2-20.7c20.5-26.5,31-60.9,31.7-94.8c0.5-22.7-3.1-45.6-12.2-66.4
				c-13.4-30.6-38.5-55.5-68.5-70c-30-14.6-65.4-19.6-98.4-14.5c-39.7,6.1-60,29.2-87.8,56.1c-10.1,9.7-20.2,19.5-31.4,27.9
				c-22.9,17.1-83,63.4-99,12.7c-3.2-10.1-1.5-17.5-10.4-25.3c-9.4-8.2-22.7-9.6-34.5-7.2c-25.5,5.1-31.8,19.8-34,45
				C320,217.1,323.6,232.8,333.8,243.3z"/>
			<g>
				<path class="st3" d="M597.5,164.9c9.4-16.7,22.7-30.5,41.9-37.9c31.3-12.1,72.6-7.3,97.5,16.3c33.7,31.9,27.4,86.4-6.9,115.1
					c-35.6,29.7-98.8,40.4-131.2,0.2C576.8,231.2,581.1,193.8,597.5,164.9z"/>
				<path class="st4" d="M729.6,207.5c3.4,41.4-41.8,71.5-78.6,54.2c-23.5-11.1-34.2-32.8-30.5-58.9c2.2-15.5,13-29,26.9-36.2
					c28.2-14.5,66.9-5.4,78.8,25.9C728.1,197.6,729.2,202.6,729.6,207.5z"/>
				<path class="st3" d="M670.7,174.3c7.7,3.5,14.3,12,14.2,22.4c0,3.4-2,6.6-4.5,8.9c-6.2,5.7-16.2,6.8-23.4,2.4
					c-7.2-4.4-11-13.7-8.7-21.9C651.9,172.9,662,170.4,670.7,174.3z"/>
			</g>
			<path class="st1" d="M464.8,736.1c26.3,41.9,76.4,67.4,125.8,64.8c18.8-1,37.1-5.7,55.1-11.2c1.7-0.5,3.4-1.1,5.2-1.6
				c35.9-11.4,71.5-25.4,101.6-48c30.1-22.5,54.6-54.5,61.8-91.4c5.4-27.5,1-56.2-8.4-82.6c-9.3-26.4-23.5-50.8-38-74.8
				c-13.5-22.2-28-45.6-28.7-71.6c-0.8-28.7,15.1-54.4,26.6-80.9c1-2.3,2-4.7,2.9-7.1l-173-21.5l-43.5-5.4
				c7.2,3.7,13.8,8.4,19.7,13.8c18.9,17.5,30.7,43,32.7,68.9c2.7,34-10.1,68.2-31.1,95c-32.6,41.6-83.8,67-110.8,112.4
				C437.4,637.5,438.5,694.2,464.8,736.1z"/>
			<path class="st1" d="M615.4,766.4c44,34.5,89.3,70.5,115.3,119.9c11.5,21.8,19,46.2,18.2,70.9c-0.7,24.6-10.3,49.5-28.5,66.1
				c-9.4,8.5-21,14.8-33.5,16.7c-13.4,2-27.3-1-39.4-7c-21.6-10.6-38.5-31-43.1-54.5c-3-15.3,1.3-34.4,16-39.8
				c12.4-4.5,26,3,35.4,12.4c3.7,3.6,7.8,7.9,12.9,7.5c4.1-0.3,7.3-3.5,9.3-7.1c5.4-9.5,4.3-21.9-1.3-31.4
				c-5.5-9.5-14.8-16.3-24.7-20.9c-15.6-7.2-34.4-9.1-49.8-1.5c-16.1,8-26,25-31.3,42.2c-15.2,49.5,2.3,107.3,42.4,140
				c40.1,32.7,100.3,38.2,145.7,13.4c17.9-9.8,33.2-23.6,46.4-39.2c11.8-13.9,22-29.7,26.4-47.4c7.3-28.9-1.8-59.8-16.1-85.9
				c-14.4-26.2-33.9-49.1-50-74.2c-8-12.6-15.3-26-18-40.6c-2.8-15.4-0.3-31.3,3.3-46.5c3.3-14.2,7.6-28.2,12.8-41.8
				c3.5-9.1,7.5-18.6,6.3-28.4L615.4,766.4z"/>
			<path class="st2" d="M461.3,730.2c1.1,2,2.3,4,3.5,5.9c3.5,5.6,7.4,10.9,11.7,15.9c16.3,18.9,37.8,33.2,61.4,41.3
				c11.5,4,23.4,6.5,35.5,7.4h0c5.7,0.4,11.4,0.5,17.1,0.2c18.8-1,37.1-5.7,55.1-11.2c-6.2-7.2-12.7-14.3-19.2-21.3
				c-1.1-1.1-2.1-2.3-3.2-3.4c-4-4.2-8-8.4-12-12.6c-9.3-9.9-18.4-20-26.1-31c-3.8-5.5-7.3-11.3-10.2-17.3c-1.5-3.1-2.9-6.3-4.1-9.6
				c-5.8-15.5-7.4-31.9-6.2-48.3c0.5-7,1.5-14,3-20.9c3.2-15.2,8.3-30.2,14.5-44.3c1.5-3.5,3.1-6.9,4.8-10.3
				c2.3-4.8,4.7-9.6,7.1-14.3c8.1-15.7,16.9-31.1,24.9-46.9c2.3-4.5,4.5-9,6.7-13.6c3-6.5,5.9-13,8.5-19.7
				c6-15.5,10.5-31.5,13.3-47.9c0.6-3.6,1.2-7.3,1.7-10.9c0.1-1,0.3-2.1,0.4-3.1c1.3-11.4,1.7-23.1-0.2-34.2
				c-1.2-6.7-3.2-13.3-6.3-19.4c-1.4-2.7-3-5.3-4.7-7.7c-3.7-5.3-8-10.2-12.4-15c-0.6-0.7-1.2-1.3-1.9-2
				c-8.6-9.3-17.4-18.8-28.1-25.6c-1.6-1-3.1-1.9-4.8-2.8c-20.5-10.7-49.3-13.3-72.1-13.5c-4.2,0-7.8,0.4-11,1.2
				c21.7,3.3,42.8,8.5,60.6,20.9c1.2,0.8,2.3,1.6,3.4,2.5c6.2,5.7,11.6,12.3,16.2,19.5c3.6,5.7,6.7,11.8,9.2,18.2
				c3.9,10,6.4,20.6,7.3,31.3c0.3,4.3,0.4,8.6,0.3,12.9c-0.2,7-1.1,13.9-2.5,20.7c-4.3,21.2-13.9,41.4-26.9,58.8
				c-0.7,0.9-1.3,1.8-2,2.6c-4.6,5.8-9.5,11.3-14.6,16.6c-15.5,15.9-33.2,29.8-50,44.4c-7.6,6.6-15,13.4-22,20.6
				c-9.1,9.4-17.4,19.5-24.2,30.9c-5.8,9.7-10.2,20.2-13.2,31c-2.6,9.1-4.1,18.5-4.8,27.9v0C442.9,680.2,448.5,707.1,461.3,730.2z"
				/>
			<path class="st5" d="M588.2,338.2c3.6,5.7,6.7,11.8,9.2,18.2c4.4-1.4,8.9-2.6,13.7-3.3c5.8-0.9,11.8-1.2,17.7-1
				c3.1,0.1,6.3,0.5,9.4,0.8c-3.7-5.3-8-10.2-12.4-15c-5.4-0.8-10.8-1.3-16.2-1.3C602.6,336.4,595.3,336.9,588.2,338.2z"/>
			<path class="st5" d="M602.5,421.2c6.6-0.3,13.2-0.1,19.8,0.9c6.2,0.9,12.4,2.4,18.5,4c2.2,0.6,4.4,1.4,6.6,2.1
				c0.6-3.6,1.2-7.3,1.7-10.9c0.1-1,0.3-2.1,0.4-3.1c-0.6-0.3-1.2-0.6-1.8-1c-6.6-3.5-13.5-6.3-20.7-8.4c-7.2-2.1-14.7-3.6-22.1-4.4
				C604.7,407.4,603.9,414.4,602.5,421.2z"/>
			<path class="st5" d="M558.9,499.2c9.1,0.1,18.2,0.7,27.2,2.1c9.3,1.5,18.6,3.6,27.6,6.4c1.7,0.5,3.5,1.1,5.2,1.7
				c2.3-4.5,4.5-9,6.7-13.6c-9-4.5-18.8-7.9-28.4-10.7c-7-2.1-14.3-3.8-21.6-5.1c-0.7,0.9-1.3,1.8-2,2.6
				C569,488.4,564.1,493.9,558.9,499.2z"/>
			<path class="st5" d="M486.9,564.1c19,1.4,38,2.8,56.9,4.1c13.6,0.9,27.3,1.6,40.9,2.3c0.7,0,1.4,0.1,2.1,0.1
				c2.3-4.8,4.7-9.6,7.1-14.3c-4.2-0.8-8.4-1.5-12.6-2.2c-24.1-3.8-48.3-7.4-72.6-10.6C501.3,550.2,493.9,556.9,486.9,564.1z"/>
			<path class="st5" d="M444.7,653.9c1.3-0.1,2.7-0.2,4-0.2c31.4-1.9,62.9-3.7,94.2-6.1c7.2-0.5,14.4-1,21.6-1.5
				c0.5-7,1.5-14,3-20.9c-26.2,0-52.3,0.1-78.5,0.4c-13.2,0.2-26.4,0.2-39.6,0.5C447,635.1,445.4,644.5,444.7,653.9z"/>
			<path class="st5" d="M461.3,730.2c1.1,2,2.3,4,3.5,5.9c3.5,5.6,7.4,10.9,11.7,15.9c23.2-6.4,46.4-12.8,69.5-19.5
				c13-3.7,26.1-7.4,39.2-11.1c-3.8-5.5-7.3-11.3-10.2-17.3c-30.2,6.3-60.3,13.6-90.3,20.7C476.9,726.6,469.1,728.4,461.3,730.2z"/>
			<path class="st5" d="M538,793.3c11.5,4,23.4,6.5,35.5,7.4h0c4.2-2.4,8.3-4.8,12.4-7.4c12.6-7.9,24.8-16.7,35.8-26.8
				c0.6-0.5,1.1-1,1.7-1.5c-4-4.2-8-8.4-12-12.6c-2,1.5-4.1,3.1-6.2,4.5C584.2,771.7,561.6,783.7,538,793.3z"/>
		</g>
		<path class="st6" d="M357.4,229c-1.7,1.4-3.7,2.7-5.9,2.7c-2.5,0-4.7-1.6-6.5-3.4c-9-8.6-13.7-21.5-12.3-33.8
			c2.2-19,23.8-30.7,34.1-10.7C374.3,198.5,370,218.7,357.4,229z"/>
		<path class="st2" d="M716.6,526.1c7.8,1,15.5,4.9,19.7,11.5c4.2,6.6,4,16.2-1.4,21.8c-7.1,7.3-19.1,5.8-28.6,9.6
			c8.9,2.9,18.1,5.9,24.7,12.5c6.6,6.6,9.5,17.9,3.9,25.3c-3.5,4.6-9.5,6.8-15.3,6.6c-5.8-0.2-11.3-2.6-16.1-5.7
			c5.6,5.5,10.5,11.8,14.4,18.6c2.8,4.9,5.1,10.9,2.7,16c-1.8,3.7-5.8,5.9-9.9,6.7c-11,2.1-22.1-5.2-27.9-14.7
			c-5.9-9.5-7.7-20.9-9.4-32c-1-6.5-2-13-3-19.6c-0.6-3.8-1.2-7.7-0.8-11.5C671.7,549.3,692.7,523.1,716.6,526.1z"/>
	</g>
</g>
</svg>
