<?xml version="1.0" encoding="utf-8"?>
<!-- Generator: Adobe Illustrator 21.1.0, SVG Export Plug-In . SVG Version: 6.00 Build 0)  -->
<svg version="1.1" xmlns="http://www.w3.org/2000/svg" xmlns:xlink="http://www.w3.org/1999/xlink" x="0px" y="0px"
	 viewBox="0 0 1200 1200" style="enable-background:new 0 0 1200 1200;" xml:space="preserve">
<style type="text/css">
	.st0{fill:#D81D29;stroke:#FFFFFF;stroke-width:100;stroke-miterlimit:10;}
	.st1{fill:#E74242;}
	.st2{fill:#D81D29;}
	.st3{fill:#ED9C1A;}
	.st4{fill:#FBBD23;}
	.st5{fill:#FFFFFF;}
	.st6{fill:#1D1D1B;}
	.st7{fill:#EB6727;}
</style>
<g id="Слой_3">
	<path class="st0" d="M1104.6,271.8C1104.6,271.7,1104.5,271.7,1104.6,271.8c0.1-0.3,0.3-0.5,0.4-0.7c-23.5-10.5-50.6-6-75,3.2
		c-2.2,0.7-4.4,1.4-6.5,2.1c-26.4,9.1-50.3,24.4-71.5,42.3c-42.1,35.3-76.2,82-102.7,129.9c-7.6,13.7-14.5,27.7-20.8,42.1
		c-4.1-2.6-8.4-5.2-12.9-8c-22.4-14.1-45.2-27.4-68.4-40.1c-10.4-5.7-20.9-11.2-31.4-16.6c0.2-0.5,0.3-1.1,0.4-1.6
		c0.1-0.5,0.1-1.1,0.2-1.6c0.5-0.2,1-0.3,1.4-0.5c1.7-0.7,2-2.7,0.4-3.8c-1-0.6-2-1.1-3.1-1.5c-1.8-4.2-5.4-8-8.3-11.6
		c-13.3-16.7-15.3-41.1-6.2-60.2c2.5-1.1,4.9-2.1,7.4-3.2c3.8-1.7,6.7-4.2,10.3-6c1.3-0.6,0.6-2.8-0.8-2.7c-3.6,0.4-6.6,0-10.2,0.5
		c-14.8-11.4-29.5-23.6-39.3-39.5c-8.6-14-13-31.4-9.1-47.1c4.2-4.1,8.4-8.2,12.6-12.3c1.4-1.4-0.5-3.7-2.2-2.7
		c-4.1,2.6-8.2,5.2-12.1,8c-28.4-2-52.8-28.3-54.3-56.5c6.4-8,12.8-16.1,18.7-24.4c0.9-1.2-0.9-2.9-2.1-2c-5.9,4.6-11.6,9.5-17,14.8
		c-15.4,2.7-32-3.7-41.6-16c-8-10.3-10.8-24.3-7.8-36.9c6.9-8.9,14.4-17.7,20.5-27.2c1-1.6-1.2-2.9-2.5-1.8
		c-8.4,6.9-15.7,15.7-22.8,24.1c-33.5,15.3-64.7,35.6-92.6,59.6c-52.6,45.3-93.8,104-118.4,168.9c-1.8,4.8-4.7,11.9-7.8,20.1
		c-54.6,26.9-98.1,74.7-126.4,129c-19.2,36.9-32,76.9-40.3,117.7c-12.4,60.9-30.5,119.2,13.3,173.3
		c42.7,52.8,93.1,106.3,156.1,134.4c1.1,0.5,2.3,1,3.4,1.5c2.9,14,8.2,27.6,15.3,39.4c15,24.9,40.4,44,69.1,48.9
		c28.7,4.9,60.1-5.2,78.6-27.7c9.2-11.1,15-24.7,18.2-38.7c13.6-1.7,27-4.6,39.9-9.1c13-4.5,25.3-10.6,37.1-17.6
		c17.6,6,36.4,8.2,54.9,5.7c36-4.9,69.5-28.9,83.1-62.6c7-17.3,8.7-36.4,7-55c-0.3-2.8-0.6-5.5-1.1-8.3c17-15.1,34-30.2,51-45.3
		c11.7-10.4,22.8-21,33.1-32.1c2.4,7.9,5.1,15.7,7.8,23.1c6.9,19,15.4,37.6,25.4,55.2c19.5,34.5,45.1,66,75.3,91.6
		c17.2,14.6,35.8,27.5,56.5,36.4c1,0.4,2.1-0.8,1.2-1.6c-1-0.8-1.9-1.6-2.9-2.4c-4-48.4,16.1-98.2,52.5-130.4
		c4.5,1.3,9,2.2,13.4,2.2c1.5,0,1.8-1.9,0.7-2.7c-3.3-2.3-7-4.1-10.8-5.8c-20.9-39.6-12.5-92.3,18.5-124.2c3.2-0.6,6.4-1.4,9.5-2.3
		c3-0.9,3.4-6.1-0.1-6.6c-0.1,0-0.2,0-0.2,0c-32.1-38.2-33-98.8-3.5-138.8c2.6-0.9,5.2-2,7.6-3.3c1.5-0.8,1.1-3.3-0.5-3.7
		c-0.4-0.1-0.8-0.2-1.2-0.3c0.3-0.3,0.6-0.7,0.9-1c-19.3-39.5-11.8-90.1,17-123.1c3.8-1.5,7.6-3,11.4-4.6c1.9-0.8,1.9-4-0.6-3.9
		c-1,0.1-2,0.2-3,0.3c-15.2-10.7-20.4-31.7-16.9-49.9c3.2-16.6,12.2-31.4,22.1-45.2c0.6-0.1,1.2-0.1,1.7-0.2
		C1105.3,274.8,1106.4,272.5,1104.6,271.8z"/>
</g>
<g id="Слой_3__x28_копия_x29_">
	<g>
		<g>
			<path class="st1" d="M517.5,938.7c-3.1,14.6-9.1,28.8-18.6,40.3c-18.5,22.4-49.9,32.6-78.6,27.7c-28.7-4.9-54.1-24-69.1-48.9
				c-16.5-27.4-23.3-64.1-12.6-94.8c1.1-3.1,2.3-6.2,3.8-9.1c0-0.1,0.1-0.2,0.2-0.4c0.2-0.5,0.5-1,0.7-1.4c0.7-1.3,1.4-2.5,2.1-3.8
				c0.3-0.6,0.7-1.2,1-1.7c0.7-1.2,1.5-2.3,2.3-3.5l3.2,1.9c0.5,0.7,1,1.4,1.5,2.1c0.6,0.8,1.3,1.6,2,2.4c0.1,0.1,0.2,0.3,0.4,0.4
				c0,0,0,0,0,0c0,0,0,0,0,0.1c0.2,0.2,0.4,0.4,0.6,0.6c1.7,1.6,3.5,3,5.4,4.3c2.3,1.5,4.7,2.7,7.3,3.7c6,2.4,12.5,3.6,19,3.9
				c14,0.5,27.7-2.9,41.5-4.6c15.6-2,31.6-1.8,46.6,2.9c15,4.7,28.8,14.3,36.3,28.1C520.9,903.7,521.1,921.9,517.5,938.7z"/>
			<path class="st2" d="M386.5,969.3c-19-14.7-32.1-37.2-39.9-59.6c-5.2-15.1-7.9-30.9-8.1-46.8c1.1-3.1,2.3-6.2,3.8-9.1
				c0-0.1,0.1-0.2,0.2-0.4c0.2-0.5,0.5-1,0.7-1.4c0.7-1.3,1.4-2.5,2.1-3.8c0.3-0.6,0.7-1.2,1-1.7c0.7-1.2,1.5-2.3,2.3-3.5l3.2,1.9
				c0.5,0.7,1,1.4,1.5,2.1c0.6,0.8,1.3,1.6,2,2.4c-0.1,0.3-0.1,0.6-0.2,0.9c-0.2,0.7-0.3,1.5-0.4,2.2c-0.6,3.4-1.1,6.9-1.4,10.4
				c-0.6,6.6-0.7,13.2-0.2,19.8c0.5,8.1,1.8,16.2,3.8,24.2c5.6,22.7,17.1,42.1,31.4,60.4C389.5,968.7,387.9,970.3,386.5,969.3z"/>
			<path class="st2" d="M437.8,958c-12.5-5.4-24.6-13-34.1-22.9c-9.9-10.2-18-22.2-24.6-34.8c-2.7-5.2-5.2-10.5-7.4-15.9
				c-3.7-9.2-6.8-18.6-9.4-28.1c-0.1-0.5-0.3-1-0.4-1.5c-2-1.3-3.8-2.7-5.4-4.3c-0.2-0.2-0.4-0.4-0.6-0.6c0.1-0.1,0.1-0.2,0.2-0.3
				c-0.1,0.1-0.1,0.1-0.2,0.2c0,0,0,0,0,0c-0.1-0.1-0.2-0.3-0.4-0.4c-0.7-0.8-1.4-1.6-2-2.4c-0.5-0.7-1-1.4-1.5-2.1l-3.2-1.9
				c-0.8,1.1-1.6,2.3-2.3,3.5c-0.4,0.6-0.7,1.1-1,1.7c-0.7,1.2-1.4,2.5-2.1,3.8c-0.2,0.5-0.5,1-0.7,1.4c-0.1,0.1-0.1,0.2-0.2,0.4
				c0.4,1.3,0.8,2.5,1.2,3.8c1.1,3.4,2.3,6.7,3.5,10c1.9,5.1,4,10.1,6.2,15.1c0.7,1.6,1.5,3.3,2.3,4.9c5.9,12.4,13.3,24.4,22.3,34.8
				c15.3,17.5,36.2,32.2,59,37.6C438.1,960.3,439,958.5,437.8,958z"/>
			<path class="st2" d="M454.7,914c-21.3,5-44.9-3.8-63.2-14.8c-7-4.2-13.7-9.2-19.8-14.9c-6.9-6.4-13.1-13.6-18.3-21.5
				c-1.7-2.6-3.3-5.3-4.8-8c-0.4-0.7-0.8-1.4-1.2-2.2c-0.8-1.5-1.5-3-2.2-4.5c0.3-0.6,0.7-1.2,1-1.7c0.7-1.2,1.5-2.3,2.3-3.5
				l3.2,1.9c0.5,0.7,1,1.4,1.5,2.1c0.6,0.8,1.3,1.6,2,2.4c0.1,0.1,0.2,0.3,0.4,0.4c0,0,0,0,0,0c0.1-0.1,0.1-0.1,0.2-0.2
				c-0.1,0.1-0.1,0.2-0.2,0.3c0.2,0.2,0.4,0.4,0.6,0.6c1.7,1.6,3.5,3,5.4,4.3c2.3,1.5,4.7,2.7,7.3,3.7c7.7,12,17.9,22.7,28.7,31.4
				c8,6.5,17.3,11.6,26.9,15.4c9,3.5,19.8,6.9,29.6,6.5C455.7,911.7,456,913.7,454.7,914z"/>
		</g>
		<g>
			<path class="st1" d="M1021.3,277.7c26.5-11.3,57.4-18.4,83.7-6.6c-11,15-21.6,31.1-25.1,49.4c-3.5,18.3,1.7,39.4,17,50
				c-35.2,32.2-45.8,88.4-24.9,131.3c-36.4,39.5-37.8,106.4-3,147.4c-39.3,30.9-51.3,91.6-26.6,135.2
				c-39.5,32.2-61.6,84.7-56.9,135.5c-52.6-21.1-91.8-66.7-120.5-115.6c-22.9-39-40.5-81.5-47.5-126.2c-8.3-53.8,2.2-110.5,14.4-163
				C855.2,415.7,926.1,318.3,1021.3,277.7z"/>
			<path class="st2" d="M1052,787.6c-7.2-5.1-16.7-7.9-24.7-11.6c-8.6-4-17-8.3-25.3-12.9c-16.4-9.1-32.3-19.3-47.1-30.7
				c-29.4-22.6-55.5-49.2-76.9-79.5c-12.2-17.3-22.8-35.6-31.7-54.9c-4.5-9.8-19-1-14.4,8.8c33,69.5,89.9,128.9,159.3,162.6
				c9.7,4.7,19.7,9,29.8,12.7c9.4,3.5,20.3,8.2,30.4,8.2C1052.8,790.3,1053.1,788.4,1052,787.6L1052,787.6z"/>
			<path class="st2" d="M988.3,920.8c-29.8-24.4-58.8-49.1-82.9-79.4c-23.9-29.9-43.5-63.7-56.8-99.6c-3.8-10.2-7.1-20.6-10-31.1
				c-2.9-10.5-4.4-21.4-7.4-31.8c-2.4-8.7-16.8-7.1-16.1,2.3c1.5,19.5,8.2,39.7,14.9,57.9c6.9,19,15.4,37.6,25.4,55.2
				c19.5,34.5,45.1,66,75.3,91.6c17.2,14.6,35.8,27.5,56.5,36.4C988.1,922.8,989.3,921.6,988.3,920.8L988.3,920.8z"/>
			<path class="st2" d="M1104.6,271.8c-25-10.3-56.5-3.9-81.1,4.6c-26.4,9.1-50.3,24.4-71.5,42.3c-42.1,35.3-76.2,82-102.7,129.9
				c-15,27.2-27.5,55.7-37.5,85c-3,8.9,11,12.4,14,3.6c16.8-48.9,40.9-95.3,71.4-137.2c31-42.6,69.3-83.8,117.8-106.2
				c13.5-6.2,27.7-11.1,42.3-14c15.4-3.1,30.9-3,46.5-4.8C1105.3,274.8,1106.4,272.5,1104.6,271.8L1104.6,271.8z"/>
			<path class="st2" d="M1099.9,370.1c-22.9,1.6-44.9,9.9-65.8,18.9c-21.4,9.2-41.9,20.2-61.7,32.5c-40.1,25.1-76.6,55.4-111.3,87.3
				c-20.1,18.4-39.6,37.4-59.2,56.3c-6.1,5.9,3.5,15.1,9.6,9.2c65.7-64.3,132.6-129,215.8-170.4c23.8-11.8,48.9-19.6,73.3-29.9
				C1102.3,373.2,1102.3,369.9,1099.9,370.1L1099.9,370.1z"/>
			<path class="st2" d="M1072.4,502.9c-8.9-2.1-18-0.9-27,0.2c-9.4,1.1-18.7,2.8-28,4.4c-19,3.4-37.9,8-56.5,13.1
				c-37.8,10.2-74.9,23.1-111.7,36.5c-10.2,3.7-20.4,7.6-30.6,11.4c-10.4,3.9-21.4,7.2-31.2,12.3c-8.2,4.3-2.1,16.6,6.3,14.5
				c11.9-3.1,23.4-8.7,34.9-13.1c11.6-4.4,23.2-8.8,34.9-13.2c22.9-8.5,46-16.7,69.3-24.2c23.2-7.5,46.6-14.4,70.3-20.3
				c12-3,24-6,36-8.5c11.3-2.4,23.5-4,33.8-9.5C1074.5,505.8,1074,503.3,1072.4,502.9L1072.4,502.9z"/>
			<path class="st2" d="M1069,648.8c-16.3-2.1-32.8-1.6-49.2-2.8c-17-1.2-34-3.4-50.7-6.8c-32.7-6.6-64.8-17.1-94.7-31.8
				c-8.5-4.2-16.9-8.7-25-13.5c-8.4-5-16.4-10.8-24.8-15.7c-8.1-4.7-17.6,7.3-10,13.5c13.3,10.9,29.5,19.3,44.8,27
				c15.9,8,32.3,14.9,49.1,20.7c32.8,11.3,67.4,18.2,102,19.9c19.2,1,40,1.4,58.6-4.1C1072.1,654.4,1072.5,649.2,1069,648.8
				L1069,648.8z"/>
		</g>
		<g>
			<path class="st1" d="M556.3,110.5c-6.9,14.4-5,32.7,4.8,45.3c9.8,12.6,27.1,19,42.7,15.8c-6.3,33.5,23.4,68.8,57.5,68.4
				c-7.3,17.4-3,37.9,6.8,53.9c9.9,16,24.7,28.3,39.7,39.8c-16.6,19.7-17,51.2-0.9,71.3c4.6,5.7,10.7,11.9,9.4,19.1
				c-0.6,3.3-2.8,6.1-4.8,8.9c-16.5,22.2-28.1,47.9-34,74.9c-79.3-23.1-160.1-41.5-241.6-55.1c-20.7-3.4-41.4-6.6-62.3-8.3
				c-13.6-1.1-43.2,4.5-53-6.8c-15.9-18.3,9.6-75.7,17-95.2c24.6-65,65.8-123.6,118.4-168.9C486,147.7,519.8,126.2,556.3,110.5z"/>
			<path class="st2" d="M571.3,89.9c-8.9,7.4-16.6,16.8-24.1,25.6c-7.5,9-14.9,18.1-21.9,27.4c-13.9,18.6-27,37.8-39.1,57.6
				c-24.3,39.7-44.7,81.8-61.2,125.4c-9.3,24.7-17.4,49.9-24.7,75.3c-3.5,12.2,16.6,17.3,19,4.9c17.5-90,56.8-176.3,108.4-251.7
				c7.5-11,15.3-21.9,23.3-32.6c7.5-9.9,16-19.6,22.7-30.1C574.8,90.1,572.5,88.8,571.3,89.9L571.3,89.9z"/>
			<path class="st2" d="M619.7,157c-28.7,22.1-51.2,53.6-70.9,83.7c-20.5,31.3-37.6,64.6-51.3,99.4c-7.7,19.4-16.1,40.2-19.2,60.9
				c-1.3,8.8,10.4,11.9,13.4,3.4c6.1-17,9.8-34.8,15.7-51.8c6-17.5,13-34.6,20.8-51.3c15.6-33.2,34.4-64.9,56.4-94.3
				c12.1-16.2,25.4-31.5,37.1-47.9C622.6,157.8,620.9,156.1,619.7,157L619.7,157z"/>
			<path class="st2" d="M669.5,231.9c-33.5,20.8-61.8,50.2-86.8,80.5c-25.3,30.7-46.8,64.6-64.3,100.3c-3.5,7.2,7.4,13.2,10.8,6
				c16.8-35.5,37.7-68.8,61.9-99.7c24.2-30.8,52.6-57.2,80.5-84.5C673,233.2,671.2,230.9,669.5,231.9L669.5,231.9z"/>
			<path class="st2" d="M717.6,333c-3.8,0.4-7-0.1-10.9,0.7c-4,0.8-8,1.9-11.9,3.1c-7.5,2.2-14.8,5.2-22,8.3
				c-14.6,6.3-28.6,14-42,22.6C604,385.1,579.9,407,560,432.1c-5.6,7,4.5,16.8,10.2,9.7c19.3-24.2,41.9-45.4,67.5-63
				c12.4-8.5,25.5-16,38.9-22.8c6.7-3.4,13.5-6.4,20.4-9.5c3.7-1.7,7.4-3.2,11.1-4.9c3.8-1.7,6.7-4.2,10.3-6
				C719.6,335,719,332.8,717.6,333L717.6,333z"/>
			<path class="st2" d="M718.3,418.3c-4.7-3.1-11.7-2.9-17.2-3.3c-6.4-0.5-12.9-0.6-19.4-0.5c-13.4,0.2-26.7,1.6-39.9,4
				c-26.4,4.8-51.6,13.8-75.3,26.4c-6.4,3.4-0.5,13,5.9,9.6c22.4-11.6,46.6-20.1,71.4-25.2c12.2-2.5,24.6-4.3,36.9-5.2
				c6.4-0.5,12.9-0.7,19.4-0.8c5.6-0.1,12.5,1,17.7-1.2C719.5,421.4,719.9,419.3,718.3,418.3L718.3,418.3z"/>
		</g>
		<path class="st3" d="M861.6,531.7c15.6,35.4,24.3,86.4,5.6,121.7c-19.7,37.3-46.8,66.9-78.2,94.7
			c-41.2,36.5-82.3,73.1-123.5,109.6c-32.9,29.2-66.9,59-108.4,73.4c-30.4,10.5-63.2,12.1-95.4,11.2c-41.7-1.2-83.9-6.7-122.6-22.6
			c-2.2-0.9-4.4-1.9-6.7-2.8c-63.1-28.1-113.4-81.6-156.1-134.4c-43.8-54.1-25.7-112.4-13.3-173.3c8.3-40.7,21-80.7,40.3-117.7
			c32-61.4,83.6-114.5,148.5-138.5c18.3-6.7,37-11,56.1-13.3c66.5-7.8,136.2,9.4,198.9,35.6c47.9,20,94.9,42.2,140.4,67.1
			c23.2,12.7,46.1,26,68.4,40.1c14.9,9.4,27.6,15.9,36.7,31.2C855.8,519.5,858.9,525.5,861.6,531.7z"/>
		<path class="st4" d="M541.8,540c0,0,63.2,215.1-209.3,376.9c-63.1-28.1-113.4-81.6-156.1-134.4c-43.8-54.1-25.7-112.4-13.3-173.3
			c8.3-40.7,21-80.7,40.3-117.7c32-61.4,83.6-114.5,148.5-138.5c18.3-6.7,37-11,56.1-13.3C439.1,344.5,507.1,374.4,541.8,540z"/>
		<g>
			<path class="st5" d="M469.6,500.3c-10.5-18.6-25.3-33.9-46.6-42.1c-34.8-13.4-80.8-8.1-108.5,18.1c-37.5,35.4-30.5,96.1,7.7,128
				c39.6,33.1,109.9,45,145.9,0.3C492.7,574.1,487.8,532.5,469.6,500.3z"/>
			<path class="st6" d="M322.6,547.7c-3.8,46.1,46.5,79.5,87.5,60.3c26.2-12.3,38.1-36.5,34-65.5c-2.4-17.2-14.5-32.3-29.9-40.2
				c-31.4-16.2-74.4-6-87.7,28.8C324.3,536.7,323.1,542.3,322.6,547.7z"/>
			<path class="st5" d="M388.1,510.8c-8.6,3.8-15.9,13.3-15.8,25c0,3.8,2.2,7.3,5,9.9c6.9,6.4,18,7.5,26.1,2.7
				c8-4.9,12.2-15.3,9.7-24.3C409,509.3,397.8,506.5,388.1,510.8z"/>
		</g>
		<path class="st1" d="M159.9,734.2c0,0,88.9,20.5,156-30.9c0,0-33.9,180.7-156.6,37.3L159.9,734.2z"/>
		<path class="st7" d="M601.1,440.4c0,0,54.4,34.1,8,76.7C609.2,517.1,632.4,475.7,601.1,440.4z"/>
		<path class="st7" d="M615.2,544.6c0,0,54.4,34.1,8,76.7C623.2,621.3,646.5,579.9,615.2,544.6z"/>
		<path class="st7" d="M622.3,652.6c0,0,40.4,49.9-17.3,75.2C605,727.8,640.4,696.2,622.3,652.6z"/>
		<path class="st7" d="M667.8,479c0,0,50.4,39.8-0.4,77.2C667.5,556.1,695.1,517.5,667.8,479z"/>
		<path class="st7" d="M674.2,599.5c0,0,50.4,39.8-0.4,77.2C673.8,676.6,701.4,637.9,674.2,599.5z"/>
		<path class="st7" d="M725.3,538.6c0,0,50.4,39.8-0.4,77.2C725,615.7,752.6,577.1,725.3,538.6z"/>
		<path class="st7" d="M495.5,406.7c0,0,122.8,178.4,19.1,330C514.6,736.7,581,601.8,495.5,406.7z"/>
		<g>
			<path class="st1" d="M739.1,801.7c1.8,18.6,0,37.7-7,55c-13.6,33.7-47.1,57.6-83.1,62.6c-36,4.9-73.4-8.1-100.6-32.1
				c-29.9-26.4-51.9-67.5-50.8-108.1c0.1-4.1,0.4-8.2,1.1-12.3c0-0.2,0-0.3,0.1-0.5c0.1-0.7,0.2-1.3,0.3-2c0.3-1.8,0.7-3.5,1.1-5.3
				c0.2-0.8,0.4-1.7,0.6-2.5c0.4-1.7,0.9-3.3,1.4-5l4.6,1c0.8,0.7,1.7,1.3,2.6,1.9c1.1,0.7,2.2,1.4,3.3,2.1c0.2,0.1,0.4,0.2,0.6,0.3
				c0,0,0,0,0,0c0,0,0.1,0,0.1,0.1c0.3,0.2,0.7,0.3,1,0.5c2.6,1.3,5.3,2.3,8.1,3c3.2,0.9,6.6,1.4,10,1.7c8,0.6,16.3-0.4,24-2.5
				c16.8-4.7,31.9-13.9,47.7-21.1c17.8-8.2,37-14.1,56.5-14.1c19.6,0,39.6,6.2,53.8,19.7C729.9,758.8,737.1,780.4,739.1,801.7z"/>
			<path class="st2" d="M594.8,887.4c-28.2-10.3-52.2-32.1-69.9-55.8c-11.9-16-21-33.8-27.2-52.6c0.1-4.1,0.4-8.2,1.1-12.3
				c0-0.2,0-0.3,0.1-0.5c0.1-0.7,0.2-1.3,0.3-2c0.3-1.8,0.7-3.5,1.1-5.3c0.2-0.8,0.4-1.7,0.6-2.5c0.4-1.7,0.9-3.3,1.4-5l4.6,1
				c0.8,0.7,1.7,1.3,2.6,1.9c1.1,0.7,2.2,1.4,3.3,2.1c0,0.4,0.1,0.8,0.1,1.2c0.1,0.9,0.2,1.9,0.4,2.8c0.6,4.3,1.4,8.6,2.3,12.9
				c1.8,8,4.2,16,7.2,23.7c3.7,9.5,8.3,18.6,13.6,27.4c15.3,24.9,36.2,43.7,60.1,60.1C598.1,885.7,596.8,888.2,594.8,887.4z"/>
			<path class="st2" d="M651.5,854.7c-17-1.7-34.1-6.3-49.2-14.4c-15.6-8.4-29.8-19.7-42.3-32.1c-5.2-5.2-10.1-10.6-14.8-16.2
				c-7.9-9.5-15.1-19.5-21.8-29.9c-0.3-0.5-0.7-1.1-1-1.6c-2.8-0.8-5.5-1.8-8.1-3c-0.3-0.2-0.6-0.3-1-0.5c0-0.1,0-0.3,0.1-0.4
				c0,0.1-0.1,0.2-0.2,0.3c0,0,0,0,0,0.1c-0.2-0.1-0.4-0.2-0.6-0.3c-1.1-0.6-2.3-1.3-3.3-2.1c-0.9-0.6-1.8-1.3-2.6-1.9l-4.6-1
				c-0.5,1.7-1,3.3-1.4,5c-0.2,0.8-0.4,1.6-0.6,2.5c-0.4,1.7-0.8,3.5-1.1,5.3c-0.1,0.7-0.2,1.3-0.3,2c0,0.2-0.1,0.3-0.1,0.5
				c0.9,1.3,1.9,2.7,2.9,4c2.6,3.6,5.2,7.1,8,10.6c4.2,5.3,8.5,10.6,13,15.6c1.5,1.7,3,3.3,4.5,5c11.7,12.6,25,24,39.7,33
				c24.8,15.1,55.2,24.7,84.4,22.5C652.7,857.4,653.1,854.9,651.5,854.7z"/>
			<path class="st2" d="M655.1,796.1c-23.5,14-54.8,12.4-80.8,6.2c-10-2.4-19.8-5.8-29.1-10.3c-10.6-5-20.7-11.3-29.8-18.7
				c-3-2.4-6-5-8.8-7.7c-0.7-0.7-1.5-1.4-2.2-2.1c-1.5-1.5-2.9-3-4.3-4.5c0.2-0.8,0.4-1.7,0.6-2.5c0.4-1.7,0.9-3.3,1.4-5l4.6,1
				c0.8,0.7,1.7,1.3,2.6,1.9c1.1,0.7,2.2,1.4,3.3,2.1c0.2,0.1,0.4,0.2,0.6,0.3c0,0,0,0,0-0.1c0.1-0.1,0.1-0.2,0.2-0.3
				c0,0.1-0.1,0.3-0.1,0.4c0.3,0.2,0.7,0.3,1,0.5c2.6,1.3,5.3,2.3,8.1,3c3.2,0.9,6.6,1.4,10,1.7c13.7,11.4,29.8,20.3,46,26.5
				c12,4.7,25,7.3,37.8,8.1c12,0.8,26.2,0.8,37.6-3.4C655.4,792.9,656.4,795.2,655.1,796.1z"/>
		</g>
	</g>
</g>
</svg>
