<?xml version="1.0" encoding="utf-8"?>
<!-- Generator: Adobe Illustrator 21.1.0, SVG Export Plug-In . SVG Version: 6.00 Build 0)  -->
<svg version="1.1" xmlns="http://www.w3.org/2000/svg" xmlns:xlink="http://www.w3.org/1999/xlink" x="0px" y="0px"
	 viewBox="0 0 1200 1200" style="enable-background:new 0 0 1200 1200;" xml:space="preserve">
<style type="text/css">
	.st0{fill:#F4DA4F;stroke:#FFFFFF;stroke-width:100;stroke-miterlimit:10;}
	.st1{fill:#DC575F;}
	.st2{fill:#D83040;}
	.st3{fill:#37B5B1;}
	.st4{fill:#1E9F98;}
	.st5{fill:#7BC8D1;}
	.st6{fill:#FFFFFF;}
	.st7{fill:#1D1D1B;}
	.st8{fill:#F4DA4F;}
	.st9{fill:#0F918B;}
</style>
<g id="Слой_2">
	<path class="st0" d="M1087.1,532.9c11.9-22.3,19.1-50.7,10.8-76.5c-6.1-19.2-20.2-34.4-36.1-42.9c-15.9-8.5-33.6-11-50.6-10.3
		c-38.3,1.6-74.9,18.3-105,44.3c-14.7,12.6-27.9,27.4-39.6,43.6c-22.2-34.6-51.3-64.9-85.1-90c10.5-9.6,19.1-21.1,24.9-34.1
		c8.6-19.5,10-43-0.5-61.5c-10.5-18.5-34.5-29.6-54.3-21.8c11.6-22,8.6-50.9-7.3-70.1c-14.4-17.4-37.4-26-60-26.9
		c-22.5-0.9-44.8,5-66.1,12.6c-63.4,22.5-124.1,63.3-155.9,121.5c-9.3,0.9-18.5,2.1-27.7,3.5c-10,1.5-19.9,3.3-29.8,5.4
		c-71.6,14.9-140.5,44-195.8,89c-30.1,24.5-52.1,51.5-66.7,81c-3.9,7.9-7.3,16-10.1,24.2c-5.8,16.7-9.4,34.1-10.9,52.1
		c-2,24.1-0.4,49.4,4.7,75.8c3,15.7,7.5,31,13.3,45.7c23.2,59.2,67.8,109.5,128,139.9c1.7,0.9,3.5,1.8,5.3,2.6
		c0.6,0.3,1.2,0.6,1.9,0.9c1.2,0.6,2.3,1.1,3.5,1.7c0.7,0.3,1.4,0.7,2.2,1c1.1,0.5,2.2,1,3.2,1.5c0.7,0.3,1.5,0.7,2.2,1
		c1.1,0.5,2.3,1,3.4,1.5c0.7,0.3,1.4,0.6,2.1,0.9c1.7,0.7,3.5,1.5,5.2,2.2c0.6,0.3,1.3,0.5,1.9,0.8c1.2,0.5,2.3,1,3.5,1.4
		c0.8,0.3,1.6,0.6,2.5,1c1,0.4,2,0.8,3.1,1.2c0.9,0.3,1.7,0.7,2.6,1c1,0.4,2,0.8,3,1.1c0.9,0.3,1.7,0.6,2.6,0.9
		c1.1,0.4,2.2,0.8,3.3,1.2c0.8,0.3,1.5,0.6,2.3,0.8c1.7,0.6,3.5,1.2,5.3,1.8c0.8,0.3,1.7,0.6,2.5,0.8c1,0.3,2.1,0.7,3.1,1
		c0.9,0.3,1.8,0.6,2.7,0.9c1,0.3,1.9,0.6,2.9,0.9c0.9,0.3,1.9,0.6,2.8,0.9c1,0.3,1.9,0.6,2.9,0.9c0.9,0.3,1.9,0.6,2.8,0.8
		c1,0.3,2.1,0.6,3.1,0.9c1.6,0.4,3.1,0.9,4.7,1.3c1,0.3,2.1,0.6,3.2,0.9c1,0.3,2,0.5,3,0.8c0.9,0.2,1.8,0.5,2.7,0.7
		c1,0.3,2.1,0.5,3.1,0.8c0.8,0.2,1.7,0.4,2.5,0.6c1.1,0.3,2.2,0.5,3.2,0.8c0.8,0.2,1.6,0.4,2.4,0.5c1.1,0.3,2.3,0.5,3.4,0.8
		c0.4,0.1,0.8,0.2,1.1,0.2c2.8,0.6,5.5,1.2,8.3,1.8c0.4,0.1,0.8,0.2,1.3,0.3c1.3,0.3,2.7,0.5,4,0.8c0.5,0.1,1.1,0.2,1.6,0.3
		c1.4,0.3,2.7,0.5,4.1,0.8c0.4,0.1,0.9,0.2,1.3,0.2c1.5,0.3,3,0.5,4.5,0.8c0.1,0,0.1,0,0.2,0c11.6,2,23.2,3.7,34.9,5
		c0.2,0,0.5,0.1,0.7,0.1c2.7,0.3,5.5,0.6,8.2,0.8c0.8,0.1,1.6,0.1,2.4,0.2c1.9,0.2,3.7,0.3,5.6,0.5c1,0.1,2,0.2,3,0.2
		c2.6,0.2,5.2,0.4,7.8,0.6c47,3.1,95.1,2.2,141.8-4.3c5.4,6.2,11.1,12.1,17.4,17.5c27.9,24.2,58,28.7,93.8,26
		c28-2.1,92.5-33.6,63.1-70.1c9.3,11.6,30,6.7,42.2,3.8c22.6-5.3,39-22,43-44.6c3.9-22.4-2.4-42-14.9-57.9
		c5.7-7.2,11.1-14.6,16.1-22.2c14.8,18.9,32.3,34.9,49.2,45.8c43.5,28.2,117.6,36,149.5-11.8c30.7-46,15.6-109-28.4-139
		c-21-14.3-45.2-19.4-68.8-24.1C1017.5,607.7,1062.7,578.7,1087.1,532.9z"/>
</g>
<g id="Слой_2__x28_копия_x29_">
	<g>
		<g>
			<path class="st1" d="M665.4,705.4c-16,4.1-31.9,10.4-48.3,12.4c-12.3,1.5-19.5,4.8-28.6,13.8c-20.5,20.2-32.2,47.7-25.8,76.5
				c3.8,17.1,13.1,32.5,23,47c11.6,17,24.2,33.5,39.7,47c27.9,24.2,58,28.7,93.8,26c28-2.1,92.5-33.6,63.1-70.1
				c9.3,11.6,30,6.7,42.2,3.8c22.6-5.3,39-22,43-44.6c6.7-38-16.4-68.3-48.6-85.3c-14.4-7.6-29.8-13.1-44.3-20.5
				c-9.2-4.7-18.5-9.4-28.6-12C719.9,692.3,691,698.9,665.4,705.4z"/>
			<path class="st2" d="M845,798.1c2.9,8.5,0.6,19.2-7.1,23.9c-6.3,3.8-14.4,2.9-21.4,0.5c-12.9-4.4-23.8-13.2-34.4-21.8
				c-4.7-3.8-9.8-8.8-8.8-14.7c0.5-2.8,2.2-5.1,4.2-7.1c3-3.1,6.5-5.8,10.5-7.3c11.3-4.1,24.6,2.5,34.8,5.6
				C832.4,780.3,841.5,788.1,845,798.1z"/>
			<path class="st2" d="M732.2,871.8c2.9,8.5,0.6,19.2-7.1,23.9c-6.3,3.8-14.4,2.9-21.4,0.5c-12.9-4.4-23.8-13.2-34.4-21.8
				c-4.7-3.8-9.8-8.8-8.8-14.7c0.5-2.8,2.2-5.1,4.2-7.1c3-3.1,6.5-5.8,10.5-7.3c11.3-4.1,24.6,2.5,34.8,5.6
				C719.6,854,728.7,861.8,732.2,871.8z"/>
		</g>
		<g>
			<path class="st1" d="M450.3,346.9c26.4-72.4,95.3-122,167.9-147.8c21.3-7.5,43.5-13.5,66.1-12.6c22.5,0.9,45.6,9.5,60,26.9
				c15.9,19.2,18.9,48,7.3,70.1c19.8-7.9,43.8,3.3,54.3,21.8c10.5,18.5,9.1,42.1,0.5,61.5c-12.2,27.6-37.5,48-65.4,59.7
				c-27.9,11.7-58.4,15.5-88.5,17.3L450.3,346.9z"/>
			<path class="st2" d="M564.3,331.5c-7.4,3.2-23.7,5.5-29.2-2.9c-2.4-3.7-1.6-8.6-0.6-12.9c1.8-8.1,14.5-17.4,20.4-23.2
				c7.9-7.8,16.2-15.1,24.8-22c17.4-13.7,36.2-25.5,56.2-35.1c8.1-3.9,16.7-7.5,25.7-7.7c16-0.4,24.4,13.2,13.7,25.7
				c-13.7,16-31.4,28.4-48.6,40.3C606.8,307.6,586.6,321.7,564.3,331.5z"/>
			<path class="st2" d="M605.6,390.9c-7.4,3.2-23.7,5.5-29.2-2.9c-2.4-3.7-1.6-8.6-0.6-12.9c1.8-8.1,14.5-17.4,20.4-23.2
				c7.9-7.8,16.2-15.1,24.8-22c17.4-13.7,36.2-25.5,56.2-35.1c8.1-3.9,16.7-7.5,25.7-7.7c16-0.4,24.4,13.2,13.7,25.7
				c-13.7,16-31.4,28.4-48.6,40.3C648.1,367,628,381.1,605.6,390.9z"/>
			<path class="st2" d="M658.3,445c-7.4,3.2-23.7,5.5-29.2-2.9c-2.4-3.7-1.6-8.6-0.6-12.9c1.8-8.1,14.5-17.4,20.4-23.2
				c7.9-7.8,16.2-15.1,24.8-22c17.4-13.7,36.2-25.5,56.2-35.1c8.1-3.9,16.7-7.5,25.7-7.7c16-0.4,24.4,13.2,13.7,25.7
				c-13.7,16-31.4,28.4-48.6,40.3C700.8,421.2,680.6,435.2,658.3,445z"/>
		</g>
		<g>
			<path class="st1" d="M906.2,447.4c30.2-26,66.7-42.7,105-44.3c17.1-0.7,34.7,1.7,50.6,10.3c15.9,8.5,30,23.8,36.1,42.9
				c8.2,25.8,1.1,54.2-10.8,76.5c-24.5,45.9-69.7,74.9-117,75c23.6,4.8,47.8,9.8,68.8,24.1c44,30,59.1,93,28.4,139
				c-31.9,47.8-106,40-149.5,11.8c-39-25.2-81.7-77.7-85.3-130c-4.1-59.5,0.6-115.6,33.7-161.2C878,475.1,891.4,460.2,906.2,447.4z"
				/>
			<path class="st2" d="M865.2,543.1c3.2-18.1,12.2-23.4,25.3-35.6c17.9-16.7,38.4-30.1,59.4-42.5c11.6-6.9,41.1-21.7,46.7,0
				c3.1,12.2-12.1,25.4-20.6,32.2c-24.4,19.5-51.3,36-79.7,48.9c-4.8,2.2-10,4.3-15.3,3.7c-8.4-1-16-12-12.2-20.2
				c0.3-0.6,0.6-1.3,1-1.9L865.2,543.1z"/>
			<path class="st2" d="M855.4,587.3c8.2-16.4,18.4-18.9,34.4-26.9c21.9-10.9,45.4-17.9,69-23.8c13.1-3.3,45.6-9.1,44.8,13.3
				c-0.5,12.6-18.9,20.9-28.9,25c-29,11.8-59.4,19.9-90.4,24.1c-5.3,0.7-10.8,1.3-15.7-0.8c-7.7-3.4-11.9-16-6-22.8
				c0.5-0.5,1-1,1.5-1.5L855.4,587.3z"/>
			<path class="st2" d="M851.6,613.8c17-6.7,26.3-1.8,43.6,3c23.5,6.5,45.7,17.1,67.3,28.4c12,6.3,40,23.7,24.4,39.8
				c-8.7,9-28,3-38.2-0.7c-29.4-10.6-57.5-24.9-83.4-42.4c-4.4-3-8.9-6.3-11.1-11.1c-3.5-7.7,1.9-19.9,10.8-21
				c0.7-0.1,1.4-0.1,2.2-0.1L851.6,613.8z"/>
			<path class="st2" d="M848.8,663c18-3.4,26.2,3.2,42.3,11.1c21.9,10.8,41.7,25.3,60.8,40.5c10.6,8.4,34.9,30.8,16.6,43.7
				c-10.3,7.2-28.1-2.3-37.4-7.8c-26.9-15.9-51.8-35.2-74-57.3c-3.8-3.7-7.6-7.8-8.8-13c-2-8.2,5.5-19.2,14.5-18.6
				c0.7,0,1.4,0.1,2.2,0.3L848.8,663z"/>
		</g>
		<path class="st3" d="M764.7,833.7c-88.1,50-195.7,61.7-298.5,55.1c-12.1-0.8-24.2-1.9-36.3-3.5c-56.7-7.1-112.5-22.6-162.8-48
			c-60.2-30.5-104.7-80.8-128-139.9c-5.8-14.8-10.2-30.1-13.3-45.7c-5.1-26.4-6.8-51.7-4.7-75.8c1.5-18,5.2-35.4,10.9-52.1
			c2.8-8.3,6.2-16.3,10.1-24.2c14.6-29.5,36.6-56.5,66.7-81c55.3-45,124.2-74.1,195.8-89c9.9-2.1,19.8-3.8,29.8-5.4
			c78.4-11.9,159.9-7,234.4,18.2c84.1,28.4,158.5,83.5,202.3,156.3c17.7,29.4,30.4,61.8,34.4,95.3c0,0.4,0.1,0.8,0.1,1.2
			C916.3,690.4,852.5,783.9,764.7,833.7z"/>
		<path class="st4" d="M764.7,833.7c-88.1,50-195.7,61.7-298.5,55.1c-69-4.5-138.1-20.6-199.1-51.5c-60.2-30.5-104.7-80.8-128-139.9
			c-5.8-14.8-10.2-30.1-13.3-45.7c-5.1-26.4-6.8-51.7-4.7-75.8c5.8,53.4,27,103.7,60,147.3c19.8,26.1,49.6,42.9,76.5,60.5
			c32.9,21.6,70.6,35.4,108.8,44c84.9,19.1,175.5,14.3,260.2-3.7c64.5-13.8,128.3-36.4,180.8-76.4c49.2-37.5,87.7-91.7,98.3-152.4
			C916.3,690.4,852.5,783.9,764.7,833.7z"/>
		<path class="st5" d="M429.9,885.3c-56.7-7.1-112.5-22.6-162.8-48c-60.2-30.5-104.7-80.8-128-139.9c-5.8-14.8-10.2-30.1-13.3-45.7
			c-5.1-26.4-6.8-51.7-4.7-75.8c1.5-18,5.2-35.4,10.9-52.1c2.8-8.3,6.2-16.3,10.1-24.2c14.6-29.5,36.6-56.5,66.7-81
			c55.3-45,124.2-74.1,195.8-89c9.9-2.1,19.8-3.8,29.8-5.4c26.1,31.4,92.7,118,106.2,199.2C540.7,523.3,576.2,678.1,429.9,885.3z"/>
		<g>
			<path class="st6" d="M450.6,417.9c-10-17.7-24.1-32.4-44.5-40.3c-33.3-12.8-77.2-7.7-103.6,17.3c-35.8,33.8-29.1,91.8,7.3,122.3
				c37.8,31.6,105,43,139.4,0.3C472.6,488.4,468,448.7,450.6,417.9z"/>
			<path class="st7" d="M310.2,463.2c-3.6,44,44.4,76,83.6,57.6c25-11.8,36.3-34.8,32.5-62.5c-2.3-16.4-13.9-30.8-28.6-38.4
				c-29.9-15.4-71.1-5.8-83.8,27.5C311.8,452.6,310.6,458,310.2,463.2z"/>
			<path class="st6" d="M372.8,427.9c-8.2,3.7-15.2,12.7-15.1,23.8c0,3.6,2.1,7,4.7,9.5c6.6,6.1,17.2,7.2,24.9,2.6
				c7.7-4.6,11.6-14.6,9.3-23.2C392.8,426.4,382,423.8,372.8,427.9z"/>
		</g>
		<path class="st8" d="M639.3,386.3c-44.4,7.7-72.1,33.4-75.9,79.5C555.5,561.7,671.6,580,722.1,513
			C764.9,456.1,704.4,375.1,639.3,386.3z"/>
		<path class="st8" d="M739.8,607.2c-12.3,2.1-20,9.3-21.1,22.1c-2.2,26.6,30,31.7,44,13.1C774.7,626.6,757.9,604.1,739.8,607.2z"/>
		<path class="st5" d="M728.3,546.2c-10.5,1.8-17.1,7.9-18,18.9c-1.9,22.7,25.7,27,37.6,11.2C758.1,562.8,743.7,543.6,728.3,546.2z"
			/>
		<path class="st5" d="M819.7,588.7c-15.5,2.7-25.1,11.6-26.4,27.7c-2.8,33.3,37.7,39.7,55.2,16.4
			C863.4,613,842.3,584.7,819.7,588.7z"/>
		<path class="st5" d="M658.7,583.4c-9.4,1.6-15.2,7.1-16.1,16.8c-1.7,20.3,22.9,24.1,33.6,10C685.2,598.2,672.4,581.1,658.7,583.4z
			"/>
		<path class="st9" d="M439.2,625.7c-6.3,4.2-14.2,6.1-21.4,8.2c-7.5,2.2-15,4-22.7,5.5c-15.1,2.9-30.5,4.3-45.9,4.3
			c-87.7,0.5-170.8-47.1-217.2-120.1c2.8-8.3,6.2-16.3,10.1-24.2c7.3,13.8,15.8,26.9,25.6,39c29.9,37.3,69.9,65.7,115.4,80.7
			c24.7,8.1,50.8,12.5,76.8,13c13.4,0.3,26.9-0.5,40.2-2.3c6.9-0.9,13.8-2.1,20.6-3.6c5.9-1.3,11.6-3.2,17.7-3.6
			C440.1,622.5,440.5,624.9,439.2,625.7z"/>
		<path class="st9" d="M504.7,425.6c0,0,100.2,145.5,15.6,269.3C520.3,694.8,574.5,584.8,504.7,425.6z"/>
		<path class="st1" d="M549.9,631.3c-2.9,16.3-12.7,31.2-26.4,40.3c-6.4,4.3-13.7,7.4-19.1,12.8c-4.8,4.8-7.9,11-10.9,17.2
			c-9.8,20.1-19.7,40.5-23.7,62.5c-4.1,22-1.6,46.1,11.6,64.2c20.9,28.6,62.1,34,96.9,27c22.2-4.5,44.5-13.7,58.4-31.5
			c18.1-23.4,17.6-57.2,6.3-84.6c-14.1-34.2-42.3-59.8-68.2-85C568.3,647.9,553,639.7,549.9,631.3
			C550,631.3,549.9,631.3,549.9,631.3z"/>
		<path class="st8" d="M763.2,537.6c7.1,15.5,27,24.9,42.5,17.7c33.7-15.7,38.2-68.3-3.9-72.5C768.6,479.7,749.6,507.9,763.2,537.6z
			"/>
	</g>
</g>
</svg>
