<?xml version="1.0" encoding="utf-8"?>
<!-- Generator: Adobe Illustrator 21.1.0, SVG Export Plug-In . SVG Version: 6.00 Build 0)  -->
<svg version="1.1" xmlns="http://www.w3.org/2000/svg" xmlns:xlink="http://www.w3.org/1999/xlink" x="0px" y="0px"
	 viewBox="0 0 1200 1200" style="enable-background:new 0 0 1200 1200;" xml:space="preserve">
<style type="text/css">
	.st0{fill:#1B69A4;stroke:#FFFFFF;stroke-width:100;stroke-miterlimit:10;}
	.st1{fill:#F7E327;}
	.st2{fill:#F7AC2B;}
	.st3{fill:#1D1D1B;}
	.st4{fill:#4485C4;}
	.st5{fill:#1B69A4;}
	.st6{fill:#8DCFF3;}
	.st7{fill:#FFFFFF;}
</style>
<g id="Слой_2">
	<path class="st0" d="M1141.8,747.9c-1-0.4-1.9-0.7-2.9-1.1c-0.3-0.1-0.7-0.3-1-0.4c-0.6-0.3-1.2-0.5-1.8-0.8
		c-0.4-0.2-0.8-0.4-1.1-0.5c-0.5-0.3-1.1-0.5-1.6-0.8c-0.4-0.2-0.8-0.4-1.2-0.6c-0.5-0.3-1-0.6-1.6-0.8c-0.4-0.2-0.8-0.4-1.1-0.6
		c-0.5-0.3-1-0.6-1.6-0.9c-0.4-0.2-0.7-0.4-1.1-0.7c-0.5-0.3-1.1-0.7-1.6-1c-0.3-0.2-0.6-0.4-0.9-0.6c-0.7-0.5-1.4-1-2.1-1.5
		c-0.1-0.1-0.3-0.2-0.4-0.3c-0.8-0.6-1.6-1.2-2.4-1.8c-0.3-0.2-0.5-0.4-0.8-0.7c-0.5-0.4-1.1-0.8-1.6-1.3c-0.3-0.3-0.6-0.5-0.9-0.8
		c-0.5-0.4-0.9-0.8-1.4-1.2c-0.3-0.3-0.6-0.6-1-0.9c-0.4-0.4-0.9-0.8-1.3-1.2c-0.3-0.3-0.6-0.6-0.9-0.9c-0.4-0.4-0.9-0.8-1.3-1.3
		c-0.3-0.3-0.6-0.6-0.9-0.9c-0.4-0.5-0.9-0.9-1.3-1.4c-0.3-0.3-0.6-0.6-0.8-0.9c-0.5-0.6-1-1.1-1.6-1.7c-0.2-0.2-0.4-0.4-0.5-0.6
		c0,0-0.1-0.1-0.1-0.1c-0.7-0.8-1.5-1.7-2.2-2.5c-0.2-0.3-0.5-0.6-0.7-0.8c-0.5-0.6-1-1.2-1.5-1.9c-0.3-0.3-0.6-0.7-0.8-1.1
		c-0.5-0.6-0.9-1.2-1.3-1.7c-0.3-0.4-0.6-0.8-0.9-1.2c-0.4-0.6-0.8-1.1-1.2-1.7c-0.3-0.4-0.6-0.8-0.9-1.2c-0.4-0.6-0.8-1.1-1.2-1.7
		c-0.3-0.4-0.6-0.8-0.9-1.3c-0.4-0.6-0.8-1.2-1.1-1.7c-0.3-0.4-0.5-0.8-0.8-1.3c-0.4-0.6-0.8-1.2-1.1-1.8c-0.2-0.4-0.5-0.8-0.7-1.2
		c-0.5-0.8-1-1.6-1.4-2.4c-0.3-0.5-0.6-1.1-0.9-1.6c-0.4-0.7-0.8-1.4-1.2-2.1c-0.3-0.5-0.5-1-0.8-1.5c-0.3-0.6-0.6-1.1-0.9-1.7
		c-0.3-0.5-0.5-1-0.8-1.6c-0.3-0.5-0.6-1.1-0.8-1.6c-0.3-0.5-0.5-1.1-0.8-1.6c-0.3-0.5-0.5-1.1-0.8-1.6c-0.3-0.5-0.5-1.1-0.8-1.6
		c-0.3-0.5-0.5-1.1-0.8-1.6c-0.2-0.5-0.5-1.1-0.7-1.6c-0.3-0.6-0.5-1.1-0.8-1.7c-0.2-0.5-0.4-1-0.7-1.5c-0.3-0.6-0.5-1.3-0.8-2
		c-0.2-0.4-0.4-0.9-0.5-1.3c-0.4-1.1-0.9-2.2-1.3-3.3c-16.4-42.3-21.7-88.6-16.3-133.6c0.3-2.5,0.6-5,1-7.5c0.7-5,1.6-9.9,2.6-14.9
		c2-9.9,4.5-19.6,7.6-29.2c5.3-16.8,12.2-33.1,20.7-48.5c0.3-0.5-0.5-1.2-2-2c-0.2-0.1-0.3-0.2-0.5-0.3c-0.5-0.3-1.1-0.5-1.8-0.8
		c-0.7-0.3-1.4-0.6-2.1-0.8c-6.6-2.5-16.3-5-17.7-5.1c-7.9-0.5-16.7,0.2-25.6,1.7c-13.8,2.4-27.9,6.7-39.3,11.3
		c-21.3,8.6-41.1,20.9-58.3,36.1c-13,11.5-24.6,24.6-34.2,39.1c-2.6,3.9-5,13.2-9.5,15.3c-6.9,3.3-8.7-4.8-11.9-10.4
		c-1.1-1.8-2.1-3.6-3.2-5.4c2.2-2.4,4.1-4.9,5.8-7.7c11.6-19.5,6-44.3-1.4-65.7c-9.3-26.6-21-52.3-35-76.8
		c26.8-18.5,31.9-58.7,17.6-87.9c-14.3-29.3-43.4-48.7-73.8-60.5c-61.4-23.9-130.4-21.6-194.6-7C499,233.3,401,290.7,336.3,374.4
		C289.7,401,248.4,437.6,219.5,483c-33,52-50,112.3-75.5,168.4c-8.2,18.1-19.2,32.1-39.2,35.5c-5.9,1-10.2,0.3-11.7,5.4
		c-0.2,0.8-0.4,1.7-0.5,2.8c-0.5,7,8.6,17.8,15.9,17.7c-7.9,0.2-15.8,2.5-22.6,6.6c0.1,0.3,0.2,0.6,0.3,0.9c0.1,0.4,0.2,0.8,0.4,1.2
		c11.8,37.7,39,69.3,71,92.5c32.6,23.6,70.3,39.3,108,53.4c27.3,10.2,54.9,19.8,82.9,28.2c39.3,11.7,79.2,20.8,119.9,24.7
		c18.1,1.8,36.4,2.5,54.9,2.1c47.2-1.2,91.9-11.2,135.3-26.4c22.8-0.2,47.2,6,70,9.6c35.2,5.5,71.5,3.7,106-5.1
		c24.4-6.2,50.2-18.1,59.9-41.4c12.4-29.9-7.2-62.6-25.8-89c-0.9-1.3-1.8-2.6-2.7-3.8c7.8-10.2,14.9-21.2,20.9-32.9
		c6.7-13.1,3.9-12.6,16.6-7.5c7.8,3.2,15.2,9.6,22.8,13.5c33.7,17.6,71.6,27.2,109.6,28.4c18.6,0.6,37.2-0.8,55.4-4.3
		c5-1,17.3-6.1,28.6-10.3c1.2-0.4,2.4-0.9,3.6-1.3c6.5-2.3,12.4-4.1,16-4.2C1140.4,747.5,1141.2,747.6,1141.8,747.9z"/>
</g>
<g id="Слой_2__x28_копия_x29_">
	<g>
		<g>
			<path class="st1" d="M611.1,905.1c-3.3,1.1,2.7,4,5.6,2.1c32-21,74-7.7,111.9-1.8c35.2,5.5,71.5,3.7,106-5.1
				c24.4-6.2,50.2-18.1,59.9-41.4c12.4-29.9-7.2-62.6-25.8-89c-7-9.9-14-19.8-21-29.7c-3.1-4.4-6.5-9.1-11.5-11
				c-5.9-2.3-12.5-0.5-18.5,1.5c-32.9,10.9-64.7,24.9-95,41.9L611.1,905.1z"/>
			<path class="st2" d="M856.2,856c-5.2,0.1-10.5,1.3-15.7,2c-5.3,0.8-10.7,1.5-16,2.1c-10.7,1.2-21.5,2-32.4,2.4
				c-10.9,0.3-21.7,0.1-32.6-0.6c-9.5-0.6-19.2-1.1-28.4-3.3c-7.7-1.8-15.2-5-18.9-12.4c-2.7-5.4-11.6-1.6-9.7,4.1
				c6.3,19,30.2,20.5,47,21.8c23.3,1.8,47.2,1.5,70.3-2.8c6.4-1.2,12.7-2.5,18.9-4.4c6-1.8,12.6-3.7,18-7
				C857.5,857.4,857.2,856,856.2,856L856.2,856z"/>
			<path class="st2" d="M848.8,826.2c-6.7-1.8-13.8-2.3-20.6-4.2c-6.8-1.9-13.4-4.5-19.7-7.7c-12.9-6.5-23-15.8-32.9-26.1
				c-3.4-3.6-10.1,1.2-7,5.4c9,12.4,22.4,21.7,36.3,27.9c6.9,3.1,14.1,5.5,21.6,7c7.1,1.4,15.2,2.7,22.4,1.1
				C850.6,829.2,850.5,826.7,848.8,826.2L848.8,826.2z"/>
			<path class="st3" d="M838.2,854.9c4.2,3.4,8.7,6.7,13.8,8.5c18.7,6.5,27.5-15.8,15.2-28.4c-4.6-4.7-12.1-3.8-18.6-3.3
				C835.7,832.7,825.4,844.5,838.2,854.9z"/>
		</g>
		<path class="st1" d="M303.6,424.1c60.9-110.8,175.9-186.4,299.2-214.4c64.3-14.6,133.2-16.9,194.6,7
			c30.3,11.8,59.5,31.3,73.8,60.5c14.3,29.3,9.2,69.4-17.6,87.9c14,24.4,25.7,50.2,35,76.8c7.4,21.4,13,46.2,1.4,65.7
			c-8.1,13.6-22.9,21.6-37,28.8c-28.4,14.6-57.1,29.3-88,37.2c-44.2,11.3-91.1,8.3-135.3,19.9c-67.7,17.8-121.5,67.9-171.5,116.8
			L303.6,424.1z"/>
		<path class="st2" d="M701,227.3c-9-0.3-18.2,1-27.1,2.3c-9,1.3-17.9,3-26.8,5.1c-17.9,4.2-35.4,9.9-52.3,17.1
			c-33.8,14.3-65.1,34.1-92.7,58.2c-7.7,6.7-15.1,13.8-22.2,21.2c-7.1,7.4-15.4,15.3-20.4,24.4c-3.5,6.4,4.7,12.6,10,7.7
			c6.5-6,11.5-13.6,17.4-20.2c5.9-6.6,12.1-13,18.6-19.2c12.9-12.3,26.7-23.6,41.4-33.7c29.4-20.3,62-36.1,95.9-47.1
			c9.4-3,19-5.7,28.6-7.9c9.9-2.3,20-3.7,29.9-6.1C702.1,228.7,701.9,227.4,701,227.3L701,227.3z"/>
		<path class="st2" d="M845.7,289c-13.7-0.7-27.9,2.4-41.2,5.6c-13.6,3.3-26.9,7.8-39.8,13.1c-25.8,10.5-49.9,24.8-71.7,42
			c-6.1,4.8-12,9.9-17.7,15.1c-6,5.6-12.2,11.2-17.2,17.8c-4,5.3,4.4,11,8.8,6.8c4.9-4.6,9.2-9.9,14-14.6c4.8-4.8,9.7-9.3,14.8-13.7
			c10.3-8.9,21.2-16.9,32.6-24.2c22.9-14.6,47.7-26.1,73.7-34c7.1-2.2,14.3-4,21.5-5.8c7.5-1.8,15.1-3.2,22.5-5.4
			C847.6,291.2,847.2,289,845.7,289L845.7,289z"/>
		<path class="st2" d="M777.8,253.6c-7.4-0.2-15,0.9-22.3,1.9c-7.4,1.1-14.7,2.5-21.9,4.1c-14.7,3.3-29,7.8-43,13.3
			c-27.7,10.9-53.7,25.8-77.2,43.9c-13.3,10.2-26.8,21.3-37.5,34.2c-4.2,5,2.5,12,7.3,7.3c10.4-10.4,20.4-21,31.7-30.6
			c11.2-9.4,23.1-18,35.6-25.7c24.8-15.3,51.6-26.9,79.5-35.1c7.8-2.3,15.6-4.3,23.6-5.9c8.2-1.7,16.6-2.8,24.8-4.7
			C779.8,256,779.4,253.6,777.8,253.6L777.8,253.6z"/>
		<path class="st2" d="M881.6,466.2c-13.7-2.4-27.4-2-41.2-0.3c-13.8,1.7-27.3,4.3-40.8,7.8c-27.3,7.1-53.6,17.3-79.4,28.5
			c-14.7,6.4-29.3,12.9-43.7,20c-2.6,1.3-3.3,4.9-1.9,7.3c1.6,2.7,4.7,3.1,7.3,1.9c25.3-11.5,50.1-23.8,76-34
			c25.4-10,51.5-18.4,78.5-23.4c15-2.8,30.2-4.2,45.2-6.4C882.4,467.6,882.3,466.4,881.6,466.2L881.6,466.2z"/>
		<path class="st2" d="M862.6,422c-13.4-2.6-28.1-1.1-41.5,0.7c-13.8,1.9-27.4,4.8-40.8,8.6c-27.4,7.8-53.7,19-79.3,31.3
			c-14.5,7-28.9,14.3-43.2,21.8c-5.1,2.7-0.6,10.4,4.5,7.7c49-25.8,99.7-51.5,154.7-61c7.4-1.3,14.9-2.3,22.4-2.9
			c7.7-0.7,15.5-0.9,23.2-1.9C864.7,426.1,864.6,422.4,862.6,422L862.6,422z"/>
		<path class="st2" d="M822.3,369.2c-13.4-2.6-28.1-1.1-41.5,0.7c-13.8,1.9-27.4,4.8-40.8,8.6c-27.4,7.8-53.7,19-79.3,31.3
			c-14.5,7-28.9,14.3-43.2,21.8c-5.1,2.7-0.6,10.4,4.5,7.7c49-25.8,99.7-51.5,154.7-61c7.4-1.3,14.9-2.3,22.4-2.9
			c7.7-0.7,15.5-0.9,23.2-1.9C824.5,373.2,824.4,369.6,822.3,369.2L822.3,369.2z"/>
		<path class="st4" d="M1141.8,747.9c-3.2-1.2-12.3,1.6-22,5.2c-11.3,4.2-23.6,9.3-28.6,10.3c-18.2,3.5-36.9,4.9-55.4,4.3
			c-38-1.2-75.8-10.8-109.6-28.4c-7.6-4-15-10.4-22.8-13.5c-12.8-5.2-9.9-5.6-16.6,7.5c-26.2,51.1-71.3,87.3-120.8,114.7
			c-9.3,5.2-18.8,10-28.3,14.6c-68.2,32.8-138,57.9-214.4,59.8c-18.4,0.5-36.7-0.3-54.9-2.1c-40.7-4-80.6-13-119.9-24.7
			c-28-8.3-55.6-18-82.9-28.2c-37.8-14-75.4-29.8-108-53.4c-32.1-23.2-59.3-54.8-71-92.5c-0.1-0.4-0.2-0.8-0.4-1.2
			c-0.1-0.3-0.2-0.6-0.3-0.9c6.8-4.1,14.7-6.4,22.6-6.6c-7.3,0.2-16.4-10.6-15.9-17.7c0.1-1.1,0.2-2,0.5-2.8c1.4-5,5.8-4.4,11.7-5.4
			c20-3.4,31-17.4,39.2-35.5c25.5-56,42.5-116.4,75.5-168.4c31.8-50.1,78.8-89.4,131.3-116.4c26.6-13.7,55.5-24.9,85.3-33.3
			c30.9-8.7,62.6-14.4,93.7-16.6c0,0,0,0,0,0c1.4-0.1,2.9-0.2,4.3-0.3c44.2-2.7,88.8,1.9,131.4,13.8c15.6,4.4,30.7,10,45.2,16.9
			c34.1,16,65.1,38.4,92.4,64.5c2.4,2.3,4.8,4.6,7.1,7c20.1,20.1,38.1,42.3,54.2,65.7c8.2,11.8,15.8,24,23,36.5
			c3.3,5.6,5,13.6,11.9,10.4c4.4-2.1,6.9-11.4,9.5-15.3c9.6-14.5,21.2-27.6,34.2-39.1c17.2-15.2,37-27.5,58.3-36.1
			c11.4-4.6,25.5-9,39.3-11.3c8.8-1.5,17.6-2.2,25.6-1.7c1.4,0.1,11,2.6,17.7,5.1c4,1.5,6.9,3,6.4,3.9
			c-38.8,70.6-44.7,158.6-15.6,233.7c7.1,18.5,17,36.8,30.2,51.5C1115.1,733.2,1127.4,742.4,1141.8,747.9z"/>
		<path class="st3" d="M760.2,315.4c7.9,6.4,16.2,12.5,25.8,15.8c35,12.1,51.4-29.5,28.3-53.1c-8.6-8.8-22.7-7.2-34.7-6.2
			C755.6,273.8,736.3,295.9,760.2,315.4z"/>
		<path class="st3" d="M654.4,292.4c4.2,3.4,8.7,6.7,13.8,8.5c18.7,6.5,27.5-15.8,15.2-28.4c-4.6-4.7-12.1-3.8-18.6-3.3
			C651.9,270.1,641.6,281.9,654.4,292.4z"/>
		<path class="st3" d="M544.6,280.7c3,2.5,6.3,4.8,10,6.1c13.5,4.7,19.8-11.4,10.9-20.5c-3.3-3.4-8.7-2.8-13.4-2.4
			C542.8,264.7,535.3,273.2,544.6,280.7z"/>
		<path class="st5" d="M1141.8,747.9c-3.2-1.2-12.3,1.6-22,5.2c-11.3,4.2-23.6,9.3-28.6,10.3c-18.2,3.5-36.9,4.9-55.4,4.3
			c-38-1.2-75.8-10.8-109.6-28.4c-7.6-4-15-10.4-22.8-13.5c-12.8-5.2-9.9-5.6-16.6,7.5c-26.2,51.1-71.3,87.3-120.8,114.7
			c-9.3,5.2-18.8,10-28.3,14.6c-68.2,32.8-138,57.9-214.4,59.8c-18.4,0.5-36.7-0.3-54.9-2.1c-40.7-4-80.6-13-119.9-24.7
			c-28-8.3-55.6-18-82.9-28.2c-37.8-14-75.4-29.8-108-53.4c-32.1-23.2-59.3-54.8-71-92.5C201.4,811,347.4,859.8,493,857.2
			c147.1-2.7,292.6-57.8,404.6-153.2c50.1,27.3,108.4,39.3,165.2,34c13.6-1.3,27.9-3.8,38.4-12.7c1.3-1.1,2.6-2.3,3.8-3.6
			C1115.1,733.2,1127.4,742.4,1141.8,747.9z"/>
		<path class="st1" d="M582.3,577.6c5.7-8.4,12-16.6,20.4-22.2c8.4-5.6,19.2-8.5,28.8-5.3c10.7,3.5,18.3,14,20.1,25.1
			c1.8,11.1-1.5,22.6-7.2,32.4c-4.1,7.1-9.5,13.4-13,20.8c-3.4,7.4-4.6,16.7-0.1,23.5c4.8,7.4,14.5,9.9,20.3,16.5
			c9.1,10.3,5.7,26.8-2,38.2c-17,25-50.4,34.7-80.4,31.1c-23.5-2.8-46.7-13.3-61.2-32c-15.3-19.8-22.6-53.5,4.6-64.8
			c15.2-6.3,27.8-9,39.9-21.4C564.5,607.2,572.7,591.7,582.3,577.6z"/>
		<g>
			<path class="st6" d="M554.6,446.5c-7.1,19.2-17.2,37.2-22.2,57c-6.3,25-4,51.3-2.1,77c1.9,25.7,3.4,52.2-4.3,76.8
				c-4.9,15.7-14.4,30.6-27.2,40.5c-7.3,5.7-15.7,9.8-24.9,11.5c3-6.3,6.1-12.6,8.5-19.2c3.1-8.3,5.1-16.8,4.8-25.5
				c-0.5-17-9.7-32.4-14.2-48.8c-11.6-42.1,8.4-85.9,11.5-129.5c2.3-32.9-6.1-64.4-21.2-93.5c-8.4-16.2-27.8-39.3-27.2-59.6
				c30.9-8.7,62.6-14.4,93.7-16.6c0,0,0,0,0,0c11.1,8.7,20.1,20.1,25.7,32.7C569.1,379.6,566,415.3,554.6,446.5z"/>
			<path class="st6" d="M499.1,792.7c0.8,15.8,8.3,30.8,8.3,46.6c0.1,17.3-8.6,33.3-17.1,48.4c-6.4,11.4-13,23.1-21.8,32.6
				c-40.7-4-80.6-13-119.9-24.7c13.4-7,26.5-13.4,32.9-19.6c12-11.7,22.2-25.2,30.7-39.7c5.4-9.2,10.1-18.9,14.8-28.5
				c4.5-9.5,9-18.9,13.5-28.4c8.9-18.9,17.8-37.7,26.7-56.6c1.7-3.7,3.5-7.4,5.2-11c3.4-7.1,6.7-14.3,10.1-21.4
				c3.5-7.4,7-14.8,10.5-22.2c-0.4,10.3,2.5,20.1,5.9,29.9c3.7,10.6,7.8,21.2,8.6,32.3C508.8,751.2,498,771.6,499.1,792.7z"/>
		</g>
		<path class="st6" d="M766.4,496c-1.4,18.1,5.7,35.7,8.6,53.6c7.3,46.2-14.8,93.2-47.8,126.4c3.1-33.8,20.9-66.1,17.5-99.9
			c-1.7-16.6-8.5-32.4-17.4-46.6c-9.6-15.3-21.9-29.7-25.3-47.4c-5-26.3,10.9-51.7,15.8-78c3.5-19.1,0.9-39.3-7.1-57
			c34.1,16,65.1,38.4,92.4,64.5c-2.3,8.4-6,16.6-10.1,24C782.3,455,768.1,473.8,766.4,496z"/>
		<path class="st6" d="M1119.8,753.1c-0.7-0.3-1.5-0.6-2.2-0.9c-7.4-2.9-14.2-6-20.8-10.4c-12.2-8-23.2-17-32.4-28.2
			c-8.6-10.4-16.2-20.8-21.9-33c-6.3-13.5-11.7-27.4-14.9-42c-3.4-15.1-5.3-30.6-5.3-46c0-15.5,1.9-31.1,4.6-46.4
			c4.6-25.7,13.6-51.2,26.6-74.1c6.8-11.9,15.1-23,24.3-33.2c2-2.2,4-4.3,6.2-6.4c4,1.5,6.9,3,6.4,3.9
			c-38.8,70.6-44.7,158.6-15.6,233.7c12.7,32.9,34.1,65.3,67.1,77.7C1138.6,746.6,1129.5,749.5,1119.8,753.1z"/>
		<g>
			<path class="st7" d="M422.5,504.9c-10.2-18-24.5-32.9-45.2-40.9c-33.8-13-78.5-7.9-105.3,17.6c-36.4,34.4-29.6,93.3,7.5,124.3
				c38.5,32.1,106.8,43.7,141.7,0.3C444.9,576.6,440.1,536.2,422.5,504.9z"/>
			<path class="st3" d="M279.7,551c-3.7,44.7,45.2,77.2,84.9,58.5c25.4-11.9,36.9-35.4,33-63.6c-2.3-16.7-14.1-31.3-29.1-39.1
				c-30.4-15.7-72.3-5.9-85.2,28C281.4,540.3,280.2,545.7,279.7,551z"/>
			<path class="st7" d="M343.4,515.1c-8.3,3.7-15.5,12.9-15.4,24.2c0,3.7,2.1,7.1,4.8,9.6c6.7,6.2,17.5,7.3,25.3,2.6
				c7.8-4.7,11.8-14.8,9.4-23.6C363.7,513.6,352.7,510.9,343.4,515.1z"/>
		</g>
		<path class="st5" d="M170,722.6c-2.4-0.3-72.7-7.5-82.6-2.9c-0.4,0.2-0.8,0.3-1.2,0.5c-0.1-0.3-0.2-0.6-0.3-0.9
			c6.8-4.1,14.7-6.4,22.6-6.6c-7.3,0.2-16.4-10.6-15.9-17.7c0.1-1.1,0.2-2,0.5-2.8l0.6-0.6C93.7,691.6,102.9,713.8,170,722.6z"/>
	</g>
</g>
</svg>
