<?xml version="1.0" encoding="utf-8"?>
<!-- Generator: Adobe Illustrator 21.1.0, SVG Export Plug-In . SVG Version: 6.00 Build 0)  -->
<svg version="1.1" id="Слой_1" xmlns="http://www.w3.org/2000/svg" xmlns:xlink="http://www.w3.org/1999/xlink" x="0px" y="0px"
	 viewBox="0 0 2000 2000" style="enable-background:new 0 0 2000 2000;" xml:space="preserve">
<style type="text/css">
	.st0{fill:#69BDC3;stroke:#FFFFFF;stroke-width:200;stroke-miterlimit:10;}
	.st1{fill:#298788;}
	.st2{fill:#69BDC3;}
	.st3{fill:#F05D5E;}
	.st4{fill:#1C191A;}
	.st5{fill:#9DCBC4;}
	.st6{fill:#58A0A5;}
</style>
<g id="Слой_1_1_">
	<path class="st0" d="M1777.4,988c-1.1-17.7-3.9-28.5-3.9-28.5c-36.4-166.2-101.3-53-101.3-53c-64.7,148.9-287.2,103.6-287.2,103.6
		c133.3-225.4,89.8-370.2,89.8-370.2c-56.6-442-431.3-458.1-431.3-458.1C743.8,166.5,563,404,563,404
		c-305.2,327.2,47,652.5,47,652.5c-52.3,49.2-119.6,77.8-191.7,80.5c-59.7,2.4-119.4-11.3-174.4-33.9c-16.6-6.8-48.4-28-51.4,2.9
		c-2.2,23.3,15.7,50,25.5,70c1.9,3.8,3.8,7.6,5.8,11.3c-7.8,5.7-13.8,10.3-15,11.4c-10.6,10.4-20.5,23.9-19.7,39.6
		c1.2,26.8,33.1,54.1,59.3,57.1c11.8,1.3,23.2-2.2,33.1-8.7c4.1-2.8,8-6,11.5-9.5c10.6,9.5,21.8,18.1,33.5,25.9
		c-0.8,1.5-1.5,3.1-2.2,4.7c-15.1,36.8,25.5,79.8,63.1,74.7c20.7-2.8,33.6-17.3,41.5-35c10.1,2.5,20.4,4.5,30.7,6.2
		c-4.1,27.3-1.3,54.5,22.2,63.5c0,0,39.2,12.8,58-58.5c15.4-0.4,30.8-1.6,46-3.4c9.3-1.1,67-4,71.9-14
		c-18,36.3-35.1,74.9-48.2,114.8c-25.7-2.7-67.7,0.1-58.7,49.1c0,0,5.9,25.8,38.5,31.8c-1,6.1-1.8,12.2-2.5,18.3
		c-25.7-0.2-57.6,8.7-36.2,59.5c0,0,7.5,22.1,35.3,15.9c0.1,0.6,0.1,1.2,0.2,1.8c2.1,19.9,6.5,39.4,13.2,57.9
		c-6.5,5.2-11.5,9.5-12.3,10.4c-14.1,14.5-25.3,34.6-20,55.2c4.7,18.6,15.8,25.3,33.1,28.9c19.7,4.2,36.4-3,49.2-15.7
		c1.3,1.2,2.5,2.4,3.8,3.6c11,10,34,33.1,50.1,31.7c13.4-1.1,12.9-30.9,15.6-42.2c9.5-38.3,24.7-75.2,40.2-111.4
		c31.6-73.4,67.8-145.1,105.5-215.6c4.2-8,12.8-18.4,14.8-27.2c-10.8,49.8-18.2,103.7-15.1,156.2c-4.3,1.3-7.8,2.6-9.2,3.3
		c-8.8,4.4-15.4,11.7-18.7,21c-8.1,22.3,6.8,44.2,29.4,47.2c3.5,0.5,6.9,0.5,10.2,0.1c4.7,16.6,11,32.8,19,48.3
		c-10.8,10.8-16,24-6.2,38.7c0,0,15.5,28.2,43.9,13.6c10.9,11.2,23,21.3,35.9,30.2c-7.5,16.5-8.1,33.4,9.8,45
		c0,0,29.3,23.2,49.7-15.2c17.2,6.1,35,10.5,52.9,13.6c7.9,1.2,15.6,2.4,23.6,3.1c3.9,0.4,8.1,1,12,1.1c28.6,0.3,3.7-47.5-0.1-61.2
		c-7-24.8-11.6-50.1-14.8-75.6c-6.2-50.1-6.7-100.7-4.3-151.1c1.9-41.9,5.6-84.1,12.7-125.5c84.8,30.2,127.8,106.1,133.3,192.8
		c1.7,27.8,0.1,55.9-3.6,83.4c-2.7,19.5-17.3,47.5-6.6,66.5c11.5,20.3,51.4,12.3,69.9,8.2c32.8-7.2,62.4-24.1,87.8-45.8
		c4.4,4.5,9.4,8.1,15.2,10.4c17.3,6.7,34.2-4,42.9-19.3c9.1-16,2.9-32.7-8.8-45.9c0.4-0.8,0.8-1.5,1.1-2.3
		c11.3-24.5,20.2-47.4,27.2-68.9c12.5,3.6,25.4,4.6,37.4,0.1c31.6-11.6,16.3-58.8-8.4-68.8c-3.8-1.6-7.8-2.7-11.8-3.4
		c3.2-22.4,4-42.8,3-61.2c7.8-2.1,15.1-5.5,21.5-10.7c18.8-15.4,20.4-45.9,5.1-64.4c-7.5-9.2-18.4-13.7-30.1-13.9
		c-6.2-0.1-12.5,0.9-18.5,2.6c-23.4-46.4-56.7-64.8-56.7-64.8c31.9-4.3,61.1-9.9,87.7-16.3c1.8,3.6,3.8,7.2,6,10.6
		c8.4,12.6,20.2,22.9,35,27c16.6,4.7,39.4,1.1,53.2-9.8c22.5-17.9,25.1-42.8,18.4-67c21.2-10.2,39.8-21.2,56.1-32.8
		c5.6,4.3,11.9,7.6,19.3,9.4c41.8,10.4,72.3-25.1,69.9-64.8c-0.7-10.8-3.6-21.8-8.3-32.3c11.4-20.3,18.8-40.3,23.4-59
		c36.3,5.4,39.5-29.4,39.5-29.4C1814.4,988.8,1792.5,985.5,1777.4,988z"/>
</g>
<g id="Слой_1__x28_копия_x29_">
	<g id="Layer_1__x28_копия_x29__1_">
		<g>
			<g>
				<g>
					<path class="st1" d="M267.8,1161.7c-3.3-5-55.3,33.4-58.9,36.9c-10.6,10.4-20.5,23.9-19.7,39.6c1.2,26.8,33.1,54.1,59.3,57.1
						c11.8,1.3,23.2-2.2,33.1-8.7c7-4.7,13.1-10.7,18.5-17.1c2.7-3.2,21.2-25.5,19.2-28.7C319,1240.8,267.9,1161.9,267.8,1161.7z"/>
					<path class="st1" d="M361.4,1268.6c-2.2-0.9-12.5,8.7-14.1,9.9c-9.5,8-18.3,17.6-23,29.1c-15.1,36.8,25.5,79.8,63.1,74.7
						c38.2-5.1,49.8-50,52.5-82C440.1,1300.3,361.6,1268.7,361.4,1268.6z"/>
					<path class="st1" d="M480.4,1285.9c0,0-51.2,110.8,1.5,131.1c0,0,56.3,18.4,66.4-111.7L480.4,1285.9z"/>
					<path class="st1" d="M628.3,1459.1c0,0-90.1-23.7-77.4,45.9c0,0,11,48.1,85.7,28.1L628.3,1459.1z"/>
					<path class="st1" d="M613.6,1558.1c0,0-96.4-22.8-63,56.5c0,0,13.6,40.1,72.2-3l-5.5-37.5L613.6,1558.1z"/>
					<path class="st1" d="M634.6,1665.9c-2.1-3.3-45,31.8-47.6,34.6c-14.1,14.5-25.3,34.6-20,55.2c4.7,18.6,15.8,25.3,33.1,28.9
						c28.5,6,50.7-11.7,63.9-35.6c4-7.2,7.3-15,10.2-22.9C674.1,1726.3,634.7,1666,634.6,1665.9z"/>
					<path class="st1" d="M888.3,1562.2c-3.8-5.4-29.1,3.2-33.1,5.1c-8.8,4.4-15.4,11.7-18.7,21c-8.1,22.3,6.8,44.2,29.4,47.2
						c10.9,1.4,21.3-1.4,30.4-7.3c2.7-1.9,24.9-20,22.6-23.2C918.8,1604.9,888.3,1562.3,888.3,1562.2z"/>
					<path class="st1" d="M953.7,1652c0,0-92.6,28.9-64.8,70.7c0,0,27.8,50.7,77.4-19.1L953.7,1652z"/>
					<path class="st1" d="M1010.3,1715c0,0-78.1,66.4-31.7,96.5c0,0,44.8,35.4,62.2-53.8L1010.3,1715z"/>
					<path class="st1" d="M1439.3,1375.1c0.2-4.2,11.8-8.9,14.6-10.3c9.6-4.6,20.6-7.6,31.4-7.4c11.8,0.2,22.6,4.7,30.1,13.9
						c15.3,18.6,13.7,49-5.1,64.4c-20.1,16.5-49.3,15-73.3,9.9C1436.9,1445.6,1439.3,1375.2,1439.3,1375.1z"/>
					<path class="st1" d="M1455.1,1507.9c0.8-1.6,12.2-1.2,13.7-1.3c9.7-0.3,19.9,0.8,28.9,4.6c24.7,10.1,39.9,57.3,8.4,68.8
						c-25.8,9.5-55.7-6-77.5-18.4C1428.6,1561.5,1455.1,1508,1455.1,1507.9z"/>
					<path class="st1" d="M1404,1627.5c26,7.3,62.1,39.6,45.2,69.4c-8.7,15.3-25.5,26-42.9,19.3c-21.8-8.5-32.7-36.2-39.6-56.5
						l36.4-20.7L1404,1627.5z"/>
					<path class="st1" d="M1724.2,1085.8c17.4,16.8,30.1,41.9,31.6,65.8c2.4,39.7-28.1,75.2-69.9,64.8c-36-8.9-48.6-52.2-54.3-84
						l91.6-62L1724.2,1085.8z"/>
					<path class="st1" d="M1763.9,991.9c0,0,52.5-24.3,46.5,39.1c0,0-5.9,63.4-90.9,5.7L1763.9,991.9z"/>
					<path class="st1" d="M1485.1,1235.8c-1.3,0.7,3,16.3,3.4,17.6c3.3,12.6,8.1,25.2,15.4,36.1c8.4,12.6,20.2,22.9,35,27
						c16.6,4.7,39.4,1.1,53.2-9.8c42-33.4,14.8-90.8-12.6-123.1C1579.3,1183.6,1485.1,1235.7,1485.1,1235.8z"/>
				</g>
				<path class="st2" d="M610,1056.5c0,0-352.3-325.3-47-652.5c0,0,180.8-237.5,480.5-222.2c0,0,374.6,16.1,431.3,458.1
					c0,0,43.5,144.8-89.8,370.2c0,0,222.5,45.3,287.2-103.6c0,0,64.9-113.2,101.3,53c0,0,71.5,276.6-363.4,335.7
					c0,0,154.9,85.5,31.4,353.5c-6.6,14.3-20.6,27.9-31.4,39.1c-29.1,30.2-65.5,54.7-106.8,63.8c-18.5,4.1-58.4,12.1-69.9-8.2
					c-10.7-19,3.9-46.9,6.6-66.5c3.7-27.6,5.3-55.6,3.6-83.4c-5.5-86.7-48.5-162.6-133.3-192.8c-7.2,41.4-10.8,83.6-12.7,125.5
					c-2.4,50.4-1.9,101,4.3,151.1c3.2,25.5,7.8,50.8,14.8,75.6c3.8,13.6,28.7,61.4,0.1,61.2c-3.9-0.1-8.1-0.7-12-1.1
					c-8-0.7-15.7-1.9-23.6-3.1c-19.3-3.3-38.4-8.1-56.7-14.9c-54.7-20.1-101.3-57.6-128.6-109.7c-44.2-84.4-36-187.4-16.4-277.4
					c-1.9,8.8-10.5,19.3-14.8,27.2c-37.7,70.5-74,142.2-105.5,215.6c-15.5,36.1-30.8,73.1-40.2,111.4c-2.7,11.2-2.2,41.1-15.6,42.2
					c-16.1,1.3-39.2-21.7-50.1-31.7c-39.6-36.5-61.4-87.2-67.1-140.3c-10.6-100.6,28-202.6,71.8-291.1c-4.9,10-62.7,12.8-71.9,14
					c-54.1,6.4-109.9,4.6-162.7-9.3c-55.4-14.4-106.5-42.8-146.2-84.2c-24.1-25.2-43.6-54.4-58.9-85.6c-9.8-20-27.7-46.7-25.5-70
					c3-30.9,34.8-9.7,51.4-2.9c55,22.6,114.7,36.3,174.4,33.9C490.4,1134.2,557.7,1105.7,610,1056.5z"/>
				<path class="st3" d="M954,780.8c1.4-8.8,92.4,69.6,179.6,10.6c0,0-31.6,126.5-101,121.9C1032.5,913.3,934.2,905.3,954,780.8z"/>
				
					<ellipse transform="matrix(0.3118 -0.9501 0.9501 0.3118 -207.9542 1159.0665)" class="st4" cx="696.2" cy="723.1" rx="38.1" ry="38.1"/>
				
					<ellipse transform="matrix(0.3118 -0.9501 0.9501 0.3118 220.8025 1766.9087)" class="st4" cx="1330.1" cy="731" rx="33.8" ry="33.8"/>
				<path class="st5" d="M1291.6,412.7c-9,5.6-21.7,8-38.4,5.1c-38.7-6.6-76.4-34.8-81.1-73.8c-5.5-45.8,38.6-71.4,78.9-50.9
					C1284.3,309.8,1341.7,381.7,1291.6,412.7z"/>
				<path class="st5" d="M1307.6,480.7c-0.4-7.6,3.4-15.2,13.1-20.8c16-9.2,41.2-2.7,50.6,13.1c5.4,9.2,5,22.1-2.6,29.6
					c-6.7,6.6-17.1,7.9-26.6,8C1324.7,510.7,1308.3,495.6,1307.6,480.7z"/>
				<path class="st5" d="M1120.1,364.3c-1.4,2.5-3.2,4.8-5.5,6.4c-29.2,20.1-61.9-46.1-12.9-42.2
					C1119.3,330,1128.6,349.4,1120.1,364.3z"/>
				<path class="st5" d="M532.8,662.4c23.6-0.9,37.9-35.3,9.8-42.9c-15-4.1-33.5,9.9-31.5,25.9C512.5,655.4,522.8,662.7,532.8,662.4
					z"/>
				<path class="st5" d="M565.7,522.8c26.9,27.7,71-2.7,70.8-35.7c-0.1-25-32.7-40-53.5-28.3c-15.1,8.5-23.2,23.4-24.4,39.9
					C557.9,509.8,560.7,517.6,565.7,522.8z"/>
			</g>
			<path class="st6" d="M1437,802.7c1.1,2.7,1.8,6,1.8,9.7c-0.6,34.9-43.5,35.6-68.1,35.1c-12.4-0.3-27.3-3.1-31.6-14.7
				c-13.7-36.6,46.2-49.8,71.3-45.9C1422,788.9,1433,793,1437,802.7z"/>
			<path class="st6" d="M668.7,831.1c-21.6,30-120.7,36.9-96.2-17.5c8-17.6,36.2-27.3,54.3-29.6c9.5-1.2,19.4-1.3,28.3,1.9
				c9,3.3,17,10.3,19.4,19.5C676.9,814.1,674.1,823.7,668.7,831.1z"/>
			<path class="st2" d="M594.5,839.1c1.1-0.1,2.3-0.8,3.1-1.9c0.8-1.3,1.1-2.9,1.4-4.4c0.8-5.2,1.5-10.6,2.6-15.7
				c0.6-2.7,2.7-8.2-0.3-10.5c-6.7-4.9-10.1,22.8-10.3,26.6c-0.1,2.2,0.4,5.1,2.5,5.8C593.8,839,594.2,839.1,594.5,839.1z"/>
			<path class="st2" d="M609.8,820.8c-0.4,2.2-0.6,4.4,0.4,6.5c0.4,0.9,1.3,1.8,2.2,1.5c0.7-0.2,1.2-1,1.6-1.7
				c2.9-6.3,4.7-13.7,5.7-20.4c0.2-1.1,0.4-2.2,0.1-3.3c-0.3-1.1-1-2.1-2.1-2.4c-1-0.3-2.2,0.3-2.8,1c-0.7,0.7-1.1,1.8-1.5,2.7
				C611.8,809.8,610.7,815.5,609.8,820.8z"/>
			<path class="st2" d="M1389.2,797.2c-0.9,1.3-1,3-1,4.7c0.1,7.5,1.3,15,3.7,22.2c0.5,1.6,1.2,3.3,2.7,3.8c1.9,0.7,3.9-0.8,4.6-2.7
				s0.4-3.9,0-5.8c-1.1-6.5-2.3-13-3.5-19.5C1395.2,796.9,1391.7,793.6,1389.2,797.2z"/>
			<path class="st2" d="M1410.9,818.9c0.8,4.8,2.2,9.8,6.1,12.8c0.4,0.4,0.9,0.7,1.5,0.7c1.5,0.1,2.2-1.8,2.5-3.3
				c1.1-7,1.7-24.4-4.9-29.4C1405.2,791.3,1410.2,814.5,1410.9,818.9z"/>
		</g>
	</g>
</g>
</svg>
